<svg xmlns="http://www.w3.org/2000/svg" width="40.984" height="36.67" viewBox="0 0 40.984 36.67">
  <path id="photo_camera_24dp_FILL0_wght300_GRAD0_opsz24" d="M120.492-790.631a8.565,8.565,0,0,0,6.295-2.582,8.565,8.565,0,0,0,2.582-6.295,8.566,8.566,0,0,0-2.582-6.295,8.566,8.566,0,0,0-6.295-2.582A8.566,8.566,0,0,0,114.2-805.8a8.566,8.566,0,0,0-2.582,6.295,8.565,8.565,0,0,0,2.582,6.295A8.565,8.565,0,0,0,120.492-790.631Zm0-3.235a5.454,5.454,0,0,1-4.015-1.626,5.454,5.454,0,0,1-1.626-4.015,5.454,5.454,0,0,1,1.626-4.015,5.454,5.454,0,0,1,4.015-1.626,5.454,5.454,0,0,1,4.015,1.626,5.454,5.454,0,0,1,1.626,4.015,5.454,5.454,0,0,1-1.626,4.015A5.454,5.454,0,0,1,120.492-793.866ZM103.9-783.33a3.764,3.764,0,0,1-2.767-1.133A3.764,3.764,0,0,1,100-787.23v-24.557a3.764,3.764,0,0,1,1.132-2.767,3.764,3.764,0,0,1,2.767-1.133h6.587L114.477-820h12.03l3.991,4.314h6.587a3.764,3.764,0,0,1,2.767,1.133,3.764,3.764,0,0,1,1.132,2.767v24.557a3.764,3.764,0,0,1-1.132,2.767,3.764,3.764,0,0,1-2.767,1.133Zm0-3.236h33.185a.646.646,0,0,0,.477-.187.646.646,0,0,0,.187-.477v-24.557a.646.646,0,0,0-.187-.477.646.646,0,0,0-.477-.187h-8.031l-3.958-4.314h-9.208l-3.958,4.314H103.9a.646.646,0,0,0-.477.187.646.646,0,0,0-.187.477v24.557a.646.646,0,0,0,.187.477A.646.646,0,0,0,103.9-786.566ZM120.492-799.508Z" transform="translate(-100 820)" fill="#fff"/>
</svg>
