<svg xmlns="http://www.w3.org/2000/svg" width="37.51" height="33.001" viewBox="0 0 37.51 33.001">
  <path id="community_ico1_g" d="M55.435-813.609a2.459,2.459,0,0,1-2.07-1.04,2.79,2.79,0,0,1-.5-2.358,34.2,34.2,0,0,0,.789-4.969q.208-2.493.268-5.019a5.456,5.456,0,0,1-2.882-2.233A6.4,6.4,0,0,1,50-832.8v-.852a2.591,2.591,0,0,1,.488-1.538,2.871,2.871,0,0,1,1.3-1.012,41.594,41.594,0,0,0,8.1-4.209,67.093,67.093,0,0,0,7.242-5.6,2.49,2.49,0,0,1,.765-.454,2.514,2.514,0,0,1,.862-.146,2.514,2.514,0,0,1,.862.146,2.49,2.49,0,0,1,.765.454,67.094,67.094,0,0,0,7.242,5.6,41.594,41.594,0,0,0,8.1,4.209,2.871,2.871,0,0,1,1.3,1.012,2.591,2.591,0,0,1,.488,1.538v.852a6.4,6.4,0,0,1-1.043,3.571A5.456,5.456,0,0,1,83.585-827q.06,2.526.268,5.019a34.2,34.2,0,0,0,.789,4.969,2.79,2.79,0,0,1-.5,2.358,2.459,2.459,0,0,1-2.07,1.04Zm.8-21.808H81.277a49.941,49.941,0,0,1-6.558-3.833,60.915,60.915,0,0,1-5.964-4.709,60.916,60.916,0,0,1-5.964,4.709A49.941,49.941,0,0,1,56.234-835.417Zm16.883,6.106a2.718,2.718,0,0,0,2.2-1.04,3.736,3.736,0,0,0,.855-2.449H70.064a3.736,3.736,0,0,0,.855,2.449A2.718,2.718,0,0,0,73.117-829.311Zm-8.723,0a2.718,2.718,0,0,0,2.2-1.04,3.736,3.736,0,0,0,.855-2.449H61.34a3.736,3.736,0,0,0,.855,2.449A2.718,2.718,0,0,0,64.394-829.311Zm-8.723,0a2.718,2.718,0,0,0,2.2-1.04,3.736,3.736,0,0,0,.855-2.449H52.617a3.736,3.736,0,0,0,.855,2.449A2.718,2.718,0,0,0,55.67-829.311Zm-.309,13.085h5.624q.426-2.785.653-5.534t.341-5.551A4.478,4.478,0,0,1,60.886-828a4.619,4.619,0,0,1-.854-.966,5.175,5.175,0,0,1-1.5,1.441,5.14,5.14,0,0,1-1.985.746q-.087,2.688-.322,5.318a36.132,36.132,0,0,1-.859,5.23Zm8.267,0H73.882q-.4-2.617-.612-5.226t-.327-5.269a4.889,4.889,0,0,1-2.4-.621A4.954,4.954,0,0,1,68.755-829a4.954,4.954,0,0,1-1.785,1.66,4.889,4.889,0,0,1-2.4.621q-.114,2.661-.327,5.269T63.628-816.226Zm12.9,0h5.624a36.131,36.131,0,0,1-.859-5.23q-.235-2.631-.322-5.318a5.328,5.328,0,0,1-2-.741A4.514,4.514,0,0,1,77.479-829a4.116,4.116,0,0,1-.837.983,4.775,4.775,0,0,1-1.109.7q.114,2.8.354,5.551T76.526-816.226Zm5.315-13.085a2.718,2.718,0,0,0,2.2-1.04,3.736,3.736,0,0,0,.855-2.449H78.787a3.736,3.736,0,0,0,.855,2.449A2.718,2.718,0,0,0,81.84-829.311Z" transform="translate(-50 846.61)" fill="#8ac1c4" opacity="0.8"/>
</svg>
