<svg xmlns="http://www.w3.org/2000/svg" width="37.511" height="24.678" viewBox="0 0 37.511 24.678">
  <path id="community_ico2_g" d="M100-696.8v-9.378a4.7,4.7,0,0,1,.524-2.143,4.658,4.658,0,0,1,1.45-1.707v-5.034a4.764,4.764,0,0,1,1.433-3.5,4.764,4.764,0,0,1,3.5-1.433H115.3a4.323,4.323,0,0,1,1.932.42,5.023,5.023,0,0,1,1.523,1.16,5.023,5.023,0,0,1,1.523-1.16,4.323,4.323,0,0,1,1.932-.42H130.6a4.764,4.764,0,0,1,3.5,1.433,4.764,4.764,0,0,1,1.433,3.5v5.034a4.658,4.658,0,0,1,1.45,1.707,4.7,4.7,0,0,1,.524,2.143v9.378a1.431,1.431,0,0,1-.426,1.055,1.433,1.433,0,0,1-1.055.426,1.431,1.431,0,0,1-1.055-.426,1.432,1.432,0,0,1-.425-1.055v-2.468H102.961v2.468a1.431,1.431,0,0,1-.426,1.055,1.433,1.433,0,0,1-1.055.426,1.431,1.431,0,0,1-1.055-.426A1.432,1.432,0,0,1,100-696.8Zm20.236-14.313h12.339v-3.949a1.91,1.91,0,0,0-.568-1.407,1.91,1.91,0,0,0-1.407-.568H122.21a1.91,1.91,0,0,0-1.407.568,1.91,1.91,0,0,0-.568,1.407Zm-15.3,0h12.339v-3.949a1.91,1.91,0,0,0-.568-1.407,1.91,1.91,0,0,0-1.407-.568H106.91a1.91,1.91,0,0,0-1.407.568,1.91,1.91,0,0,0-.568,1.407Zm-1.974,8.884h31.588v-3.948a1.91,1.91,0,0,0-.568-1.407,1.91,1.91,0,0,0-1.407-.568H104.936a1.91,1.91,0,0,0-1.407.568,1.91,1.91,0,0,0-.568,1.407Zm31.588,0h0Z" transform="translate(-100 720)" fill="#8ac1c4" opacity="0.8"/>
</svg>
