<svg xmlns="http://www.w3.org/2000/svg" width="24.41" height="34" viewBox="0 0 24.41 34">
  <path id="community_ico3" d="M179.649-858.029v-10.663a1.264,1.264,0,0,1,.376-.932,1.266,1.266,0,0,1,.932-.376,1.263,1.263,0,0,1,.932.376,1.265,1.265,0,0,1,.376.932v10.663h2.414v-10.663a1.265,1.265,0,0,1,.376-.932,1.266,1.266,0,0,1,.932-.376,1.264,1.264,0,0,1,.932.376,1.266,1.266,0,0,1,.375.932v10.663A5.971,5.971,0,0,1,185.841-854a6.4,6.4,0,0,1-3.576,2.148v14.545a1.264,1.264,0,0,1-.376.932,1.266,1.266,0,0,1-.932.376,1.263,1.263,0,0,1-.932-.376,1.265,1.265,0,0,1-.376-.932v-14.545A6.4,6.4,0,0,1,176.073-854a5.971,5.971,0,0,1-1.453-4.029v-10.663a1.264,1.264,0,0,1,.376-.932,1.265,1.265,0,0,1,.932-.376,1.264,1.264,0,0,1,.932.376,1.266,1.266,0,0,1,.375.932v10.663Zm16.765,8.081h-3.183a1.526,1.526,0,0,1-1.127-.453,1.53,1.53,0,0,1-.451-1.123v-10.193a9.287,9.287,0,0,1,1.9-5.784q1.9-2.5,3.863-2.5a1.451,1.451,0,0,1,1.174.526,1.993,1.993,0,0,1,.439,1.321v30.845a1.264,1.264,0,0,1-.376.932,1.265,1.265,0,0,1-.932.376,1.264,1.264,0,0,1-.932-.376,1.265,1.265,0,0,1-.376-.932Z" transform="translate(-174.62 870)" fill="#fff" opacity="0.8"/>
</svg>
