<svg xmlns="http://www.w3.org/2000/svg" width="37.807" height="34.37" viewBox="0 0 37.807 34.37">
  <path id="community_ico4" d="M80.426-892.564a1.31,1.31,0,0,1-.965-.389,1.311,1.311,0,0,1-.389-.965v-3.958a1.309,1.309,0,0,1,.389-.965,1.309,1.309,0,0,1,.965-.389,1.309,1.309,0,0,1,.965.389,1.309,1.309,0,0,1,.389.965v3.958a1.311,1.311,0,0,1-.389.965A1.31,1.31,0,0,1,80.426-892.564Zm8.659,3.6a1.3,1.3,0,0,1-.393-.96,1.3,1.3,0,0,1,.393-.96l2.77-2.8a1.337,1.337,0,0,1,.974-.42,1.335,1.335,0,0,1,.973.42,1.294,1.294,0,0,1,.393.951,1.3,1.3,0,0,1-.393.951l-2.815,2.815a1.3,1.3,0,0,1-.951.393A1.294,1.294,0,0,1,89.085-888.968Zm4.951,10.013a1.311,1.311,0,0,1-.965-.389,1.31,1.31,0,0,1-.389-.965,1.31,1.31,0,0,1,.389-.965,1.311,1.311,0,0,1,.965-.389h3.958a1.309,1.309,0,0,1,.965.389,1.309,1.309,0,0,1,.389.965,1.309,1.309,0,0,1-.389.965,1.309,1.309,0,0,1-.965.389Zm-2.18,12.022-2.77-2.8a1.3,1.3,0,0,1-.393-.96,1.3,1.3,0,0,1,.393-.959,1.3,1.3,0,0,1,.96-.393,1.3,1.3,0,0,1,.96.393l2.8,2.77a1.337,1.337,0,0,1,.42.974,1.335,1.335,0,0,1-.42.974,1.335,1.335,0,0,1-.973.42A1.337,1.337,0,0,1,91.855-866.933ZM69.883-888.95l-2.833-2.833a1.3,1.3,0,0,1-.393-.96,1.247,1.247,0,0,1,.393-.942,1.326,1.326,0,0,1,.965-.42,1.326,1.326,0,0,1,.965.42l2.788,2.815a1.335,1.335,0,0,1,.4.96,1.276,1.276,0,0,1-.384.96,1.3,1.3,0,0,1-.951.392A1.3,1.3,0,0,1,69.883-888.95Zm.232,21.382h7.777a3.042,3.042,0,0,0,2.23-.929,3.042,3.042,0,0,0,.929-2.23,3.065,3.065,0,0,0-.9-2.222,2.953,2.953,0,0,0-2.2-.92H75.93l-.781-1.871a5.417,5.417,0,0,0-2.081-2.474,5.638,5.638,0,0,0-3.126-.915,5.493,5.493,0,0,0-4.036,1.658,5.493,5.493,0,0,0-1.658,4.036,5.659,5.659,0,0,0,1.71,4.157,5.66,5.66,0,0,0,4.158,1.71Zm0,2.708a8.262,8.262,0,0,1-6.065-2.51,8.262,8.262,0,0,1-2.51-6.065,8.1,8.1,0,0,1,2.449-5.953,8.1,8.1,0,0,1,5.952-2.449,8.228,8.228,0,0,1,4.708,1.433,8.2,8.2,0,0,1,3.083,3.827,6,6,0,0,1,4.227,1.655,5.7,5.7,0,0,1,1.8,4.344,5.654,5.654,0,0,1-1.753,4.059,5.669,5.669,0,0,1-4.114,1.659Zm13.609-6.065q-.174-.677-.348-1.317t-.347-1.317a7.577,7.577,0,0,0,3.35-2.689,6.924,6.924,0,0,0,1.267-4.06,6.953,6.953,0,0,0-2.121-5.1,6.954,6.954,0,0,0-5.1-2.121,7.006,7.006,0,0,0-4.808,1.821,6.891,6.891,0,0,0-2.34,4.581q-.677-.174-1.382-.32t-1.382-.32a9.449,9.449,0,0,1,3.359-6.082,9.86,9.86,0,0,1,6.553-2.388,9.573,9.573,0,0,1,7.03,2.9,9.573,9.573,0,0,1,2.9,7.03,9.624,9.624,0,0,1-1.821,5.73A10.049,10.049,0,0,1,83.724-870.925ZM80.471-880.309Z" transform="translate(-61.54 899.23)" fill="#fff" opacity="0.8"/>
</svg>
