<svg xmlns="http://www.w3.org/2000/svg" width="12" height="12" viewBox="0 0 12 12">
  <path id="add_24dp_FILL0_wght300_GRAD0_opsz24" d="M225.308-733.308h-4.615a.669.669,0,0,1-.493-.2A.67.67,0,0,1,220-734a.669.669,0,0,1,.2-.493.67.67,0,0,1,.493-.2h4.615v-4.615a.669.669,0,0,1,.2-.493A.67.67,0,0,1,226-740a.669.669,0,0,1,.493.2.67.67,0,0,1,.2.493v4.615h4.615a.669.669,0,0,1,.493.2.67.67,0,0,1,.2.493.669.669,0,0,1-.2.493.67.67,0,0,1-.493.2h-4.615v4.615a.669.669,0,0,1-.2.493.67.67,0,0,1-.493.2.669.669,0,0,1-.493-.2.67.67,0,0,1-.2-.493Z" transform="translate(-220 740)" fill="#fff"/>
</svg>
