<svg xmlns="http://www.w3.org/2000/svg" xmlns:xlink="http://www.w3.org/1999/xlink" width="213" height="40.824" viewBox="0 0 213 40.824">
  <defs>
    <clipPath id="clip-path">
      <rect id="사각형_13" data-name="사각형 13" width="155.191" height="40.824" fill="none"/>
    </clipPath>
  </defs>
  <g id="그룹_5" data-name="그룹 5" transform="translate(-330 -32.088)">
    <g id="그룹_2" data-name="그룹 2" transform="translate(330 32.088)">
      <g id="그룹_1" data-name="그룹 1" transform="translate(0 0)" clip-path="url(#clip-path)">
        <path id="패스_1" data-name="패스 1" d="M57.957,20.411c0,11.274-12.975,20.413-28.981,20.413S0,31.685,0,20.411,12.975,0,28.976,0,57.957,9.14,57.957,20.411" transform="translate(0 0)" fill="#0d3896"/>
        <path id="패스_2" data-name="패스 2" d="M35.05,38.356c-12.394-.558-12.741-1.121-10.466-1.17,0,0,46.572-2,11.568-4.6,0,0-5.621-.448,9.4-.913,0,0,3.866-.679-16.183-2.035,0,0,4.006-1.825,17.312-1.3L42.336,19.4s-.712-3.7-1.02-4.945S40.2.453,40.2.453c-1.313.165-2.891.283-2.891.283-5.481-.3-13.526,2.429-13.526,2.429l-1.8.367-.129,2.333a17.717,17.717,0,0,1,.129,4.79c.113,2.068-2.68,6.714-2.68,6.714l1.728,4.959-.081,2.94,1.807,4.422s11.273,1.167,14.45,1.012c0,0,7.191.347-2.628.8,0,0-27.58-.106-20.32,1.043,0,0,12.973,1.114,19.769,1.584,0,0,7.488.868-11.751,2,0,0-9.016.692-.355,2.378,0,0,14.24,2.224,26.23.014,0,0,3.935-1.124-1.418-.614,0,0-10.415.5-11.686.439" transform="translate(-4.922 -0.171)" fill="#fff"/>
        <path id="패스_3" data-name="패스 3" d="M75.26,30.269s-8.313-.454-9.493,1.875c0,0-2.591,3.7,7.18,2.879,0,0-.707-2.564,2.313-4.753" transform="translate(-24.704 -11.411)" fill="#fc0"/>
        <path id="패스_4" data-name="패스 4" d="M43.747,23.623s-8.288-.466-9.466,1.931c0,0-2.584,3.8,7.158,2.959,0,0-.7-2.637,2.309-4.89" transform="translate(-12.821 -8.902)" fill="#40a629"/>
        <path id="패스_5" data-name="패스 5" d="M58.692,10.292s-8.09-.451-9.237,1.863c0,0-2.521,3.667,6.986,2.858,0,0-.688-2.548,2.251-4.72" transform="translate(-18.551 -3.871)" fill="#ff7f00"/>
        <path id="패스_6" data-name="패스 6" d="M118.484,19.948a2.55,2.55,0,0,1-2.035,1.018,2.509,2.509,0,0,1-2.015-1,3.6,3.6,0,0,1,0-4.57,2.523,2.523,0,0,1,2.015-.984,2.639,2.639,0,0,1,2.035.931,3.338,3.338,0,0,1,.839,2.312,3.521,3.521,0,0,1-.839,2.294m18.8-1.174H132.82V11.926h-6.959v1.426h.686a1.3,1.3,0,0,1,1.033.4,1.264,1.264,0,0,1,.343.827v9.838a8.711,8.711,0,0,1-1.581.3c-.619.066-1.543.1-2.392.1h-5.1V23.165a8.142,8.142,0,0,0,3.706-2.1,4.784,4.784,0,0,0,1.393-3.381,5.026,5.026,0,0,0-2.233-4.135,9.464,9.464,0,0,0-10.777,0,5.029,5.029,0,0,0-2.217,4.135,4.779,4.779,0,0,0,1.391,3.381,8.013,8.013,0,0,0,3.634,2.1v1.652h-6.926v2.841h15.754c1.215,0,2.42-.022,3.233-.07a11.459,11.459,0,0,0,2.114-.3v3.746h4.9V21.566h4.468Zm-4.126,16.2H118.043a.573.573,0,0,1-.378-.115.384.384,0,0,1-.136-.314V29.325H110.4v1.424h.689a1.406,1.406,0,0,1,1.028.343,1.125,1.125,0,0,1,.346.829V35.57a2.125,2.125,0,0,0,.687,1.754,3.3,3.3,0,0,0,2.1.555h17.919Z" transform="translate(-40.317 -4.479)" fill="#fff"/>
        <path id="패스_7" data-name="패스 7" d="M159.723,17.174a1.14,1.14,0,0,0-.335-.827,1.318,1.318,0,0,0-.992-.342h-.666V14.58h24.408v2.681H164.647v6.807a.509.509,0,0,0,.182.427.708.708,0,0,0,.449.143h17.028v2.625H163.538a4.4,4.4,0,0,1-2.9-.785,3.281,3.281,0,0,1-.911-2.609Zm13.66,17.186h11.576v2.82H156.822V34.36h11.637l-.039-2.848a1.031,1.031,0,0,0-.315-.784,1.18,1.18,0,0,0-.846-.3h-.53v-1.4h6.617Z" transform="translate(-59.188 -5.503)" fill="#fff"/>
        <path id="패스_8" data-name="패스 8" d="M212.576,29.391v6.157a.4.4,0,0,0,.131.314.544.544,0,0,0,.364.115h16.622v2.685H210.371a3.107,3.107,0,0,1-2.025-.557,2.166,2.166,0,0,1-.661-1.753V31.989a1.14,1.14,0,0,0-.333-.827,1.327,1.327,0,0,0-1-.342h-.662V29.391Zm15.764-6.129h3.676v2.851H221.122v6.08H216v-6.08H203.554V23.262h19.924a4.187,4.187,0,0,0,.646-1.8,26.34,26.34,0,0,0,.116-2.755v-1.6a.562.562,0,0,0-.131-.43.884.884,0,0,0-.532-.115H206.355V13.849H228.84a.371.371,0,0,1,.248.072.26.26,0,0,1,.082.212v4.222a22.685,22.685,0,0,1-.181,3.182,3.94,3.94,0,0,1-.647,1.724" transform="translate(-76.825 -5.227)" fill="#fff"/>
      </g>
    </g>
    <line id="선_1" data-name="선 1" y2="19.603" transform="translate(492.134 43.449)" fill="none" stroke="#fff" stroke-width="1" opacity="0.2"/>
    <text id="청산도" transform="translate(497 59.34)" fill="#fff" font-size="16" font-family="S-CoreDream-3Light, 'S-Core Dream \33 '" font-weight="300" letter-spacing="-0.005em"><tspan x="0" y="0">청산도</tspan></text>
  </g>
</svg>
