<svg width="25" height="25" viewBox="0 0 25 25" fill="none" xmlns="http://www.w3.org/2000/svg">
<mask id="mask0_19_546" style="mask-type:alpha" maskUnits="userSpaceOnUse" x="0" y="0" width="25" height="25">
<rect x="0.25" y="0.5" width="24" height="24" fill="#D9D9D9"/>
</mask>
<g mask="url(#mask0_19_546)">
<path d="M13.6615 13L11.8963 14.7655C11.8026 14.859 11.759 14.9705 11.7655 15.1C11.7718 15.2295 11.8218 15.341 11.9155 15.4345C12.009 15.5282 12.1248 15.575 12.2628 15.575C12.4008 15.575 12.5144 15.5282 12.6038 15.4345L14.973 13.0655C15.1347 12.9038 15.2155 12.7153 15.2155 12.5C15.2155 12.2847 15.1347 12.0962 14.973 11.9345L12.5845 9.54625C12.491 9.45258 12.3795 9.40575 12.25 9.40575C12.1205 9.40575 12.009 9.45258 11.9155 9.54625C11.8218 9.63975 11.775 9.7555 11.775 9.8935C11.775 10.0317 11.8218 10.1453 11.9155 10.2345L13.6615 12H9.25C9.10833 12 8.98958 12.048 8.89375 12.144C8.79792 12.24 8.75 12.3589 8.75 12.5008C8.75 12.6426 8.79792 12.7612 8.89375 12.8567C8.98958 12.9522 9.10833 13 9.25 13H13.6615ZM12.2533 21.5C11.0087 21.5 9.83867 21.2638 8.743 20.7915C7.6475 20.3192 6.6945 19.6782 5.884 18.8685C5.0735 18.0588 4.43192 17.1067 3.95925 16.012C3.48642 14.9175 3.25 13.7479 3.25 12.5033C3.25 11.2587 3.48617 10.0887 3.9585 8.993C4.43083 7.8975 5.07183 6.9445 5.8815 6.134C6.69117 5.3235 7.64333 4.68192 8.738 4.20925C9.8325 3.73642 11.0021 3.5 12.2467 3.5C13.4913 3.5 14.6613 3.73617 15.757 4.2085C16.8525 4.68083 17.8055 5.32183 18.616 6.1315C19.4265 6.94117 20.0681 7.89333 20.5408 8.988C21.0136 10.0825 21.25 11.2521 21.25 12.4967C21.25 13.7413 21.0138 14.9113 20.5415 16.007C20.0692 17.1025 19.4282 18.0555 18.6185 18.866C17.8088 19.6765 16.8567 20.3181 15.762 20.7908C14.6675 21.2636 13.4979 21.5 12.2533 21.5ZM12.25 20.5C14.4833 20.5 16.375 19.725 17.925 18.175C19.475 16.625 20.25 14.7333 20.25 12.5C20.25 10.2667 19.475 8.375 17.925 6.825C16.375 5.275 14.4833 4.5 12.25 4.5C10.0167 4.5 8.125 5.275 6.575 6.825C5.025 8.375 4.25 10.2667 4.25 12.5C4.25 14.7333 5.025 16.625 6.575 18.175C8.125 19.725 10.0167 20.5 12.25 20.5Z" fill="white" fill-opacity="0.8"/>
</g>
</svg>
