<svg width="30" height="30" viewBox="0 0 30 30" fill="none" xmlns="http://www.w3.org/2000/svg">
<mask id="mask0_27_998" style="mask-type:alpha" maskUnits="userSpaceOnUse" x="0" y="0" width="30" height="30">
<rect width="30" height="30" fill="#D9D9D9"/>
</mask>
<g mask="url(#mask0_27_998)">
<path d="M5.625 21.5866C5.44792 21.5866 5.29948 21.5266 5.17969 21.4066C5.0599 21.2866 5 21.1379 5 20.9606C5 20.7833 5.0599 20.635 5.17969 20.5156C5.29948 20.3963 5.44792 20.3366 5.625 20.3366H24.375C24.5521 20.3366 24.7005 20.3966 24.8203 20.5166C24.9401 20.6364 25 20.785 25 20.9625C25 21.1398 24.9401 21.2881 24.8203 21.4075C24.7005 21.5269 24.5521 21.5866 24.375 21.5866H5.625ZM5.625 15.625C5.44792 15.625 5.29948 15.565 5.17969 15.445C5.0599 15.325 5 15.1764 5 14.9991C5 14.8218 5.0599 14.6735 5.17969 14.5541C5.29948 14.4347 5.44792 14.375 5.625 14.375H24.375C24.5521 14.375 24.7005 14.435 24.8203 14.555C24.9401 14.675 25 14.8237 25 15.001C25 15.1782 24.9401 15.3266 24.8203 15.446C24.7005 15.5653 24.5521 15.625 24.375 15.625H5.625ZM5.625 9.66345C5.44792 9.66345 5.29948 9.60345 5.17969 9.48345C5.0599 9.36366 5 9.21502 5 9.03752C5 8.86022 5.0599 8.71189 5.17969 8.59252C5.29948 8.47314 5.44792 8.41345 5.625 8.41345H24.375C24.5521 8.41345 24.7005 8.47345 24.8203 8.59345C24.9401 8.71345 25 8.8621 25 9.03939C25 9.21668 24.9401 9.36502 24.8203 9.48439C24.7005 9.60377 24.5521 9.66345 24.375 9.66345H5.625Z" fill="white"/>
</g>
</svg>
