<svg width="185" height="71" viewBox="0 0 185 71" fill="none" xmlns="http://www.w3.org/2000/svg">
<path d="M38.0867 45.6876C34.7188 45.692 31.9463 48.3153 31.9463 51.5977C31.9463 54.88 34.7188 57.4767 38.0867 57.4856C41.4858 57.4723 44.2361 54.8491 44.2361 51.5977C44.2361 48.3463 41.4858 45.692 38.0867 45.6876ZM38.0023 54.7915C36.2428 54.7915 34.9099 53.3583 34.9099 51.6021C34.9099 49.8459 36.3317 48.3816 38.0823 48.3816C39.8329 48.3816 41.2058 49.8105 41.2058 51.6021C41.2058 53.3937 39.7663 54.7915 37.9979 54.7915H38.0023Z" fill="white"/>
<path d="M9.89932 41.6178C10.8413 42.5424 11.9165 43.3475 12.9695 43.8695L13.0806 43.927L14.8934 41.7904L14.7202 41.693C12.9962 40.7641 11.6455 39.5918 10.7657 38.1099C9.89043 36.6545 9.44167 34.9558 9.44167 32.9342V31.032H6.19816V32.7307C6.19816 34.9248 5.69609 36.65 4.76302 38.1629C3.71444 39.8351 2.16377 41.1843 0.177678 42.4318L0.00439453 42.538L1.97716 44.5684L2.0838 44.5065C3.25235 43.8695 4.49643 42.8919 5.58056 41.8036C6.51807 40.8525 7.33117 39.8262 7.81992 38.8575C8.29534 39.8041 9.02846 40.7729 9.90376 41.6046L9.89932 41.6178Z" fill="white"/>
<path d="M6.39355 56.0921H19.9808V46.8511H6.39355V56.0921ZM9.44601 49.461H16.9239V53.4866H9.44156V49.461H9.44601Z" fill="white"/>
<path d="M20.0298 30.4879H17.0129V45.7938H20.0298V39.0212H23.571V36.3006H20.0298V30.4879Z" fill="white"/>
<path d="M97.0831 42.4008C98.0739 43.259 99.2114 43.9801 100.278 44.4446L100.389 44.4976L102.019 42.2991L101.846 42.215C100.291 41.4188 98.9004 40.4367 97.9051 39.2423C96.8876 38.017 96.2833 36.5439 96.2833 34.7656V34.2436H100.775V31.6071H88.57V34.2436H93.0621V34.8762C93.0621 36.4908 92.52 37.9993 91.6314 39.3043C90.5828 40.8702 89.0499 42.1354 87.5659 42.9494L87.3704 43.0555L89.3742 45.1214L89.4853 45.0683C90.5694 44.4578 91.7602 43.5333 92.7821 42.4981C93.5997 41.6444 94.3328 40.7419 94.7816 39.8439C95.3236 40.7154 96.1545 41.5913 97.0831 42.4053V42.4008Z" fill="white"/>
<path d="M118.935 49.523H129.918V56.0921H132.971V46.9086H118.935V49.523Z" fill="white"/>
<path d="M126.514 38.9991C126.514 37.5525 125.866 36.221 124.897 35.2036H127.914V32.598H122.156V29.7271H118.886V32.598H112.99V35.2036H116.069C115.131 36.221 114.474 37.5393 114.474 38.9991C114.474 42.2239 117.144 44.8472 120.485 44.856C123.826 44.8472 126.514 42.2239 126.519 38.9991H126.514ZM117.384 38.8796C117.384 37.0925 118.899 35.5796 120.481 35.5796C122.062 35.5796 123.573 37.1013 123.578 38.8796C123.578 40.6358 122.062 42.1532 120.481 42.1576C118.894 42.1532 117.384 40.6358 117.384 38.8796Z" fill="white"/>
<path d="M132.971 30.4879H129.954V45.8469H132.971V39.9855H136.516V37.2694H132.971V30.4879Z" fill="white"/>
<path d="M107.378 30.4879H104.356V45.8469H107.378V39.0212H110.919V36.3006H107.378V30.4879Z" fill="white"/>
<path d="M176.038 42.0691H165.828V34.3276H173.608V31.6027H162.771V44.7144H176.038V42.0691Z" fill="white"/>
<path d="M41.779 35.0443H37.0293V37.7383H41.779V46.3291H44.8004V30.4879H41.779V35.0443Z" fill="white"/>
<path d="M34.1012 42.0161C35.0432 42.9406 36.1406 43.7457 37.1981 44.2898L37.3136 44.3562L39.1309 42.2196L38.9532 42.1178C37.2292 41.2242 35.9051 40.0519 35.021 38.5921C34.119 37.1456 33.6702 35.385 33.6702 33.3589V31.0365H30.4178V33.1687C30.4178 35.3629 29.9247 37.0837 29.0094 38.57C27.9608 40.2731 26.3879 41.6268 24.3974 42.8698L24.2285 42.976L26.2057 45.0153L26.3035 44.9534C27.4765 44.3164 28.6895 43.3918 29.7691 42.3346C30.7422 41.3658 31.5597 40.3174 32.0485 39.2999C32.515 40.22 33.2304 41.1667 34.0923 42.0161H34.1012Z" fill="white"/>
<path d="M100.895 45.6876C97.5275 45.692 94.7549 48.3153 94.7505 51.5977C94.7549 54.8491 97.5275 57.4767 100.895 57.4856C104.29 57.4723 107.045 54.8491 107.045 51.5977C107.045 48.3463 104.29 45.692 100.895 45.6876ZM100.807 54.7915C99.0515 54.7915 97.7141 53.3583 97.7141 51.6021C97.7141 49.8459 99.1314 48.3816 100.895 48.3816C102.659 48.3816 104.014 49.8105 104.019 51.6021C104.014 53.3583 102.575 54.7915 100.807 54.7915Z" fill="white"/>
<path d="M170.266 47.9349H167.209V56.0922H181.499V53.4026H170.266V47.9349Z" fill="white"/>
<path d="M181.428 37.5835V30.4879H178.411V49.3726H181.428V40.2952H185V37.5835H181.428Z" fill="white"/>
<path d="M155.871 37.4065H153.329V30.9214H150.477V55.433H153.329V40.3571H155.871V56.0922H158.834V30.4879H155.871V37.4065Z" fill="white"/>
<path d="M146.282 40.804C145.603 39.322 145.323 37.672 145.323 35.6371V34.6683H148.748V31.908H138.787V34.6683H142.323V35.6858C142.323 37.6101 142.07 39.1805 141.457 40.6403C140.751 42.3124 139.56 43.8253 137.663 45.4356L137.529 45.5594L139.404 47.4085L139.52 47.32C140.462 46.6255 141.448 45.6214 142.275 44.5862C142.968 43.7103 143.554 42.8079 143.927 42.0116C144.305 42.7858 144.896 43.6749 145.585 44.5066C146.389 45.4798 147.291 46.4043 148.157 46.9529L148.277 47.0325L149.855 45.1524L149.73 45.0374C148.033 43.5643 146.98 42.2505 146.287 40.7996L146.282 40.804Z" fill="white"/>
<path d="M8.58411 64.9263C7.13564 64.4132 6.8646 64.0681 6.8646 63.4753C6.8646 62.8826 7.28226 62.4137 8.27309 62.4137C8.99732 62.4137 9.48607 62.6481 10.0104 63.0816L10.5258 62.449C9.91706 61.9669 9.29501 61.6793 8.3264 61.6793C6.97124 61.6793 6.05595 62.365 6.05595 63.524C6.05595 64.5636 6.58913 65.0634 8.14868 65.6252C9.47274 66.0986 9.87707 66.4834 9.87707 67.147C9.87707 67.9123 9.27724 68.3812 8.31307 68.3812C7.56662 68.3812 6.93569 68.0406 6.38919 67.5186L5.85156 68.1158C6.42029 68.6864 7.30448 69.1111 8.28642 69.1111C9.79709 69.1111 10.6857 68.2352 10.6857 67.1072C10.6857 65.9791 10.1925 65.497 8.58855 64.9175L8.58411 64.9263Z" fill="white"/>
<path d="M13.9691 63.4886C13.2627 63.4886 12.6184 63.6612 12.143 63.9177L12.4362 64.5459C12.8806 64.2893 13.3471 64.1301 13.9158 64.1301C14.7067 64.1301 15.0977 64.5194 15.0977 65.3289V65.9703C14.7778 65.7934 14.289 65.6562 13.7381 65.6562C12.6628 65.6562 11.6587 66.1738 11.6587 67.3903C11.6587 68.6953 12.5518 69.1156 13.396 69.1156C14.1735 69.1156 14.7067 68.7572 15.0933 68.3458V69.005H15.8664V65.236C15.8664 63.9797 15.1332 63.4886 13.9691 63.4886ZM15.0977 67.6779C14.7689 68.1291 14.2357 68.4918 13.5337 68.4918C12.8717 68.4918 12.4229 68.1379 12.4229 67.3328C12.4229 66.656 12.9028 66.2667 13.6981 66.2667C14.3601 66.2667 14.7422 66.3862 15.0933 66.5808V67.6734L15.0977 67.6779Z" fill="white"/>
<path d="M23.6643 65.842V69.005H24.4419V65.7093C24.4419 64.1301 23.7532 63.4886 22.6424 63.4886C21.7626 63.4886 21.3183 63.8956 20.9984 64.4132C20.7407 63.8956 20.2742 63.4886 19.51 63.4886C18.8657 63.4886 18.4081 63.7939 18.1326 64.2628V63.6037H17.3506V69.0094H18.1326V65.8465C18.1326 64.6477 18.5991 64.1566 19.3456 64.1566C20.092 64.1566 20.5141 64.6078 20.5141 65.8465V69.0094H21.2917V65.8465C21.2917 64.6477 21.7626 64.1566 22.5002 64.1566C23.2867 64.1566 23.6688 64.6078 23.6688 65.8465L23.6643 65.842Z" fill="white"/>
<path d="M27.5519 65.8686C26.6321 65.4528 26.3566 65.2714 26.3566 64.8158C26.3566 64.4265 26.6854 64.1433 27.2586 64.1433C27.8318 64.1433 28.1872 64.2982 28.6093 64.63L29.0448 64.0593C28.6315 63.7187 28.0539 63.4886 27.303 63.4886C26.3211 63.4886 25.6102 64.0416 25.6102 64.8644C25.6102 65.7315 26.0634 66.0588 27.152 66.5233C28.1117 66.9347 28.436 67.1824 28.436 67.6248C28.436 68.1512 28.085 68.4609 27.3386 68.4609C26.801 68.4609 26.2944 68.2397 25.859 67.8637L25.4014 68.4299C25.9212 68.8457 26.5699 69.12 27.3164 69.12C28.2583 69.12 29.1781 68.6599 29.1781 67.5982C29.1781 66.6295 28.5782 66.3331 27.5519 65.873V65.8686Z" fill="white"/>
<path d="M33.7147 66.7577C33.7147 67.9432 33.1194 68.4431 32.3729 68.4431C31.4976 68.4431 31.0844 67.9211 31.0844 66.7577V63.5992H30.3113V66.8904C30.3113 68.4431 31.0622 69.1111 32.2085 69.1111C32.8972 69.1111 33.3993 68.7926 33.7103 68.3413V69.0005H34.4879V63.5947H33.7103V66.7532L33.7147 66.7577Z" fill="white"/>
<path d="M39.975 69.005V65.7093C39.975 64.1522 39.2196 63.4886 38.0688 63.4886C37.389 63.4886 36.8825 63.8027 36.5759 64.2628V63.6037H35.7939V69.0094H36.5759V65.8465C36.5759 64.6653 37.158 64.1566 37.9178 64.1566C38.7842 64.1566 39.2019 64.683 39.2019 65.8465V69.0094H39.9794L39.975 69.005Z" fill="white"/>
<path d="M42.4189 70.4073L42.6677 70.9956C44.6849 70.9293 45.418 70.1507 45.418 68.5228V63.5992H44.6449V64.2053C44.2628 63.7718 43.8007 63.4886 43.1165 63.4886C41.9746 63.4886 41.0637 64.4707 41.0637 66.3906C41.0637 68.3105 41.9257 69.1156 43.0143 69.1156C43.7474 69.1156 44.2672 68.7572 44.6494 68.3458V68.6245C44.6494 69.8809 44.2361 70.3542 42.4233 70.4073H42.4189ZM43.2053 68.4476C42.3478 68.4476 41.8279 67.7398 41.8279 66.3817C41.8279 64.9263 42.2723 64.1566 43.1742 64.1566C43.8185 64.1566 44.3428 64.5194 44.6405 64.9662V67.669C44.2584 68.1468 43.7829 68.4476 43.2009 68.4476H43.2053Z" fill="white"/>
<path d="M53.9799 65.3509C53.9799 62.8781 52.5803 61.7943 50.6787 61.7943H48.7637V69.0049H50.5321C52.4693 69.0049 53.9799 67.9653 53.9799 65.3465V65.3509ZM49.5723 62.5242H50.6165C52.2827 62.5242 53.1713 63.5372 53.1713 65.3775C53.1713 67.4522 52.1982 68.275 50.6342 68.275H49.5679V62.5242H49.5723Z" fill="white"/>
<path d="M56.0505 64.2716V63.6036H55.2729V69.0093H56.0505V65.8376C56.0505 64.8024 56.4726 64.2052 57.2324 64.2052C57.5923 64.2052 57.8322 64.2849 58.0455 64.4087L58.241 63.6301C58.0588 63.5461 57.7967 63.4974 57.3968 63.4974C56.8147 63.4974 56.2949 63.8425 56.0549 64.2804L56.0505 64.2716Z" fill="white"/>
<path d="M62.884 68.4918L62.5241 67.9344C62.0265 68.2662 61.6533 68.4476 61.0179 68.4476C60.1337 68.4476 59.5828 67.7177 59.5072 66.5675H63.1284C63.1551 66.4392 63.164 66.3286 63.164 66.1429C63.164 64.599 62.3953 63.4886 60.9779 63.4886C59.685 63.4886 58.7341 64.5548 58.7341 66.2711C58.7341 68.3989 59.9427 69.1156 60.9379 69.1156C61.7555 69.1156 62.2353 68.8988 62.8885 68.4918H62.884ZM60.969 64.1522C61.9199 64.1522 62.3775 64.8821 62.4397 65.9349H59.5072C59.5961 64.7273 60.1604 64.1522 60.969 64.1522Z" fill="white"/>
<path d="M65.7453 69.1156C66.5229 69.1156 67.0605 68.7572 67.4426 68.3458V69.005H68.2202V65.236C68.2202 63.9797 67.4871 63.4886 66.3141 63.4886C65.6076 63.4886 64.9678 63.6612 64.4924 63.9177L64.7856 64.5459C65.2299 64.2893 65.6965 64.1301 66.2652 64.1301C67.0605 64.1301 67.4426 64.5194 67.4426 65.3289V65.9703C67.1272 65.7934 66.6384 65.6562 66.0963 65.6562C65.0167 65.6562 64.0081 66.1738 64.0081 67.3903C64.0081 68.6953 64.9011 69.1156 65.7453 69.1156ZM66.0475 66.2711C66.7051 66.2711 67.0916 66.3906 67.4426 66.5852V67.6779C67.1138 68.1291 66.5851 68.4918 65.8875 68.4918C65.1899 68.4918 64.7767 68.1379 64.7767 67.3328C64.7767 66.656 65.2566 66.2667 66.0519 66.2667L66.0475 66.2711Z" fill="white"/>
<path d="M76.0136 65.842V69.005H76.7867V65.7093C76.7867 64.1301 76.0981 63.4886 74.9873 63.4886C74.1075 63.4886 73.6632 63.8956 73.3433 64.4132C73.0856 63.8956 72.6235 63.4886 71.8548 63.4886C71.2106 63.4886 70.7574 63.7939 70.4775 64.2628V63.6037H69.7043V69.0094H70.4775V65.8465C70.4775 64.6477 70.944 64.1566 71.6904 64.1566C72.4369 64.1566 72.859 64.6078 72.859 65.8465V69.0094H73.6321V65.8465C73.6321 64.6477 74.1075 64.1566 74.8451 64.1566C75.6271 64.1566 76.0136 64.6078 76.0136 65.8465V65.842Z" fill="white"/>
<path d="M82.5939 64.9263C81.1454 64.4131 80.8788 64.0725 80.8788 63.4753C80.8788 62.8781 81.292 62.4136 82.2829 62.4136C83.0115 62.4136 83.4958 62.6481 84.0201 63.0816L84.5355 62.4534C83.9268 61.9713 83.3048 61.6837 82.3362 61.6837C80.981 61.6837 80.0702 62.365 80.0702 63.524C80.0702 64.5635 80.5944 65.0678 82.1629 65.6208C83.4869 66.0985 83.8913 66.479 83.8913 67.147C83.8913 67.9078 83.2914 68.3812 82.3273 68.3812C81.5808 68.3812 80.9499 68.0361 80.3989 67.5141L79.8613 68.1069C80.4301 68.6864 81.3142 69.1066 82.2917 69.1066C83.798 69.1066 84.691 68.2308 84.691 67.1027C84.691 65.9747 84.1979 65.4925 82.5939 64.913V64.9263Z" fill="white"/>
<path d="M87.9879 64.1566C88.5344 64.1566 88.8988 64.3513 89.2898 64.7052L89.7563 64.1257C89.3298 63.7541 88.7699 63.4886 88.0368 63.4886C86.8994 63.4886 85.6997 64.3291 85.6997 66.3331C85.6997 68.2176 86.7883 69.12 87.9879 69.12C88.7477 69.12 89.2765 68.8324 89.7341 68.368L89.2676 67.8769C88.8988 68.2353 88.5433 68.452 88.019 68.452C87.0549 68.452 86.4861 67.5982 86.4861 66.2667C86.4861 64.9352 87.1437 64.1566 87.9924 64.1566H87.9879Z" fill="white"/>
<path d="M93.0798 63.4886C92.4 63.4886 91.8891 63.8027 91.578 64.2627V61.7191H90.8049V69.0093H91.578V65.8464C91.578 64.6609 92.1734 64.1566 92.9243 64.1566C93.7952 64.1566 94.204 64.6786 94.204 65.8464V69.0093H94.9815V65.7093C94.9815 64.1566 94.2262 63.4886 93.0754 63.4886H93.0798Z" fill="white"/>
<path d="M98.4472 63.4886C97.1275 63.4886 96.0701 64.4707 96.0701 66.3109C96.0701 68.1512 97.0831 69.12 98.4072 69.12C99.7312 69.12 100.789 68.1025 100.789 66.2667C100.789 64.4309 99.7668 63.4886 98.4472 63.4886ZM98.4294 68.452C97.4874 68.452 96.8521 67.7133 96.8521 66.2888C96.8521 64.8644 97.4874 64.1566 98.4294 64.1566C99.3713 64.1566 100.007 64.8688 100.007 66.2888C100.007 67.7088 99.3669 68.452 98.4294 68.452Z" fill="white"/>
<path d="M102.739 61.7191H101.962V69.0093H102.739V61.7191Z" fill="white"/>
<path d="M106.285 63.4886C105.583 63.4886 104.938 63.6656 104.468 63.9222L104.756 64.5547C105.201 64.2938 105.667 64.1389 106.236 64.1389C107.031 64.1389 107.413 64.5326 107.413 65.3289V65.9748C107.093 65.7934 106.605 65.6607 106.063 65.6607C104.983 65.6607 103.979 66.1782 103.979 67.3948C103.979 68.7042 104.867 69.12 105.716 69.12C106.494 69.12 107.031 68.7661 107.413 68.3503V69.0094H108.191V65.2404C108.191 63.9797 107.458 63.4886 106.285 63.4886ZM107.413 67.6779C107.085 68.1291 106.551 68.4918 105.854 68.4918C105.196 68.4918 104.747 68.1379 104.747 67.3372C104.747 66.656 105.227 66.2756 106.023 66.2756C106.685 66.2756 107.067 66.3906 107.418 66.5852V67.6779H107.413Z" fill="white"/>
<path d="M110.448 64.2716V63.5992H109.67V69.0094H110.448V65.8376C110.448 64.8069 110.87 64.2009 111.625 64.2009C111.99 64.2009 112.225 64.2805 112.443 64.4043L112.638 63.6214C112.456 63.5417 112.194 63.4886 111.794 63.4886C111.212 63.4886 110.692 63.8337 110.448 64.2716Z" fill="white"/>
<path d="M115.62 65.8686C114.696 65.4528 114.42 65.267 114.42 64.8114C114.42 64.4221 114.753 64.139 115.322 64.139C115.891 64.139 116.255 64.2982 116.677 64.6256L117.113 64.0593C116.695 63.7187 116.122 63.4843 115.376 63.4843C114.389 63.4843 113.678 64.0372 113.678 64.8644C113.678 65.7315 114.136 66.0588 115.224 66.5189C116.184 66.9303 116.509 67.178 116.509 67.6204C116.509 68.1512 116.153 68.4565 115.415 68.4565C114.873 68.4565 114.367 68.2353 113.931 67.8593L113.478 68.4255C113.994 68.8413 114.647 69.1156 115.393 69.1156C116.331 69.1156 117.255 68.6555 117.255 67.5939C117.255 66.6206 116.655 66.3287 115.629 65.8642L115.62 65.8686Z" fill="white"/>
<path d="M120.787 63.4886C120.103 63.4886 119.597 63.8027 119.286 64.2627V61.7191H118.512V69.0093H119.286V65.8464C119.286 64.6609 119.876 64.1566 120.632 64.1566C121.498 64.1566 121.911 64.6786 121.911 65.8464V69.0093H122.689V65.7093C122.689 64.1566 121.934 63.4886 120.787 63.4886Z" fill="white"/>
<path d="M124.995 63.5992H124.222V69.0094H124.995V63.5992Z" fill="white"/>
<path d="M124.626 61.5289C124.306 61.5289 124.057 61.7767 124.057 62.0907C124.057 62.3871 124.306 62.6348 124.626 62.6348C124.91 62.6348 125.164 62.3871 125.164 62.0907C125.164 61.7767 124.91 61.5289 124.626 61.5289Z" fill="white"/>
<path d="M128.972 63.4886C128.239 63.4886 127.719 63.847 127.337 64.2628V63.6037H126.563V71H127.337V68.4034C127.719 68.8324 128.185 69.12 128.869 69.12C130.007 69.12 130.918 68.1291 130.918 66.2181C130.918 64.307 130.056 63.4886 128.972 63.4886ZM128.807 68.452C128.167 68.452 127.639 68.0893 127.337 67.6381V64.9396C127.719 64.4707 128.199 64.1566 128.776 64.1566C129.638 64.1566 130.158 64.8688 130.158 66.2269C130.158 67.6779 129.714 68.452 128.807 68.452Z" fill="white"/>
<path d="M135.028 62.5287H138.476V61.7988H134.219V69.0094H135.028V65.6474H137.014V64.9219H135.028V62.5287Z" fill="white"/>
<path d="M140.835 63.4886C139.515 63.4886 138.453 64.4707 138.453 66.3109C138.453 68.1512 139.471 69.12 140.79 69.12C142.11 69.12 143.172 68.1025 143.172 66.2667C143.172 64.4309 142.159 63.4886 140.835 63.4886ZM140.813 68.452C139.871 68.452 139.24 67.7133 139.24 66.2888C139.24 64.8644 139.871 64.1566 140.813 64.1566C141.755 64.1566 142.399 64.8688 142.399 66.2888C142.399 67.7088 141.759 68.452 140.813 68.452Z" fill="white"/>
<path d="M147.46 66.7577C147.46 67.9433 146.873 68.4476 146.118 68.4476C145.247 68.4476 144.834 67.9256 144.834 66.7577V63.5992H144.056V66.8949C144.056 68.452 144.811 69.12 145.962 69.12C146.638 69.12 147.144 68.8059 147.455 68.3503V69.0094H148.233V63.5992H147.455V66.7577H147.46Z" fill="white"/>
<path d="M151.814 63.4886C151.134 63.4886 150.628 63.8027 150.312 64.2628V63.6037H149.535V69.0138H150.312V65.8509C150.312 64.6653 150.903 64.161 151.658 64.161C152.529 64.161 152.943 64.683 152.943 65.8509V69.0138H153.716V65.7138C153.716 64.161 152.96 63.4931 151.81 63.4931L151.814 63.4886Z" fill="white"/>
<path d="M158.39 64.2096C158.008 63.7761 157.541 63.4886 156.857 63.4886C155.719 63.4886 154.809 64.4706 154.809 66.3949C154.809 68.3192 155.666 69.1199 156.755 69.1199C157.488 69.1199 158.003 68.766 158.39 68.3502V69.0093H159.167V61.7191H158.39V64.2141V64.2096ZM158.39 67.6645C158.008 68.1379 157.528 68.4475 156.95 68.4475C156.093 68.4475 155.573 67.7397 155.573 66.3772C155.573 64.9219 156.017 64.1521 156.919 64.1521C157.563 64.1521 158.083 64.5105 158.39 64.9661V67.6645Z" fill="white"/>
<path d="M162.46 63.4886C161.753 63.4886 161.114 63.6656 160.638 63.9222L160.927 64.5547C161.376 64.2938 161.842 64.1389 162.407 64.1389C163.202 64.1389 163.584 64.5326 163.584 65.3289V65.9748C163.264 65.7934 162.775 65.6607 162.229 65.6607C161.158 65.6607 160.149 66.1782 160.149 67.3948C160.149 68.7042 161.042 69.12 161.891 69.12C162.669 69.12 163.202 68.7661 163.584 68.3503V69.0094H164.362V65.2404C164.362 63.9797 163.628 63.4886 162.46 63.4886ZM163.584 67.6779C163.255 68.1291 162.726 68.4918 162.02 68.4918C161.362 68.4918 160.918 68.1379 160.918 67.3372C160.918 66.656 161.393 66.2756 162.189 66.2756C162.851 66.2756 163.233 66.3906 163.584 66.5852V67.6779Z" fill="white"/>
<path d="M166.836 61.7191H166.059V63.6036H165.388V64.2539H166.059V67.9034C166.059 68.797 166.423 69.1243 167.098 69.1243C167.507 69.1243 167.796 69.0668 168.098 68.9386L168.151 68.2706C167.903 68.3723 167.698 68.4254 167.383 68.4254C166.969 68.4254 166.836 68.2617 166.836 67.7751V64.2539H168.182V63.6036H166.836V61.7191Z" fill="white"/>
<path d="M169.942 61.5289C169.622 61.5289 169.369 61.7767 169.369 62.0907C169.369 62.3871 169.622 62.6348 169.942 62.6348C170.235 62.6348 170.484 62.3871 170.484 62.0907C170.484 61.7767 170.235 61.5289 169.942 61.5289Z" fill="white"/>
<path d="M170.311 63.5992H169.538V69.0094H170.311V63.5992Z" fill="white"/>
<path d="M173.865 63.4886C172.546 63.4886 171.488 64.4707 171.488 66.3109C171.488 68.1512 172.501 69.12 173.825 69.12C175.149 69.12 176.202 68.1025 176.202 66.2667C176.202 64.4309 175.189 63.4886 173.865 63.4886ZM173.843 68.452C172.906 68.452 172.275 67.7133 172.275 66.2888C172.275 64.8644 172.906 64.1566 173.843 64.1566C174.781 64.1566 175.429 64.8688 175.429 66.2888C175.429 67.7088 174.79 68.452 173.843 68.452Z" fill="white"/>
<path d="M179.597 63.4886C178.913 63.4886 178.406 63.8027 178.095 64.2628V63.6037H177.318V69.0138H178.095V65.8509C178.095 64.6653 178.686 64.161 179.441 64.161C180.317 64.161 180.726 64.683 180.726 65.8509V69.0138H181.499V65.7138C181.499 64.161 180.743 63.4931 179.597 63.4931V63.4886Z" fill="white"/>
<path d="M99.4246 12.0014L93.4575 9.54187L99.4246 7.08231L98.3627 4.53427L92.3956 6.99383L94.8704 1.05283L92.3111 0L89.8407 5.941L87.3659 0L84.8111 1.05283L87.2815 6.99383L81.3143 4.53427L80.2568 7.08231L86.2196 9.54187L80.2568 12.0014L81.3143 14.5495L87.2815 12.0855L84.8111 18.0265L87.3703 19.0837L89.8407 13.1427L92.3111 19.0837L94.8704 18.0265L92.3956 12.0855L98.3627 14.5495L99.4246 12.0014Z" fill="white"/>
<path d="M60.8004 28.5858H64.7726V18.0265H51.1987V21.5831H60.8004V28.5858Z" fill="white"/>
<path d="M76.2892 28.5858H80.257V18.0265H66.6831V21.5831H76.2892V28.5858Z" fill="white"/>
<path d="M50.5588 34.0447H76.2892V39.4814H80.2569V30.488H50.5588V34.0447Z" fill="white"/>
<path d="M60.1604 56.0922H80.2524V41.3127H60.1604V56.0922ZM64.1326 44.8694H76.2891V52.5356H64.1326V44.8694Z" fill="white"/>
</svg>
