<svg width="25" height="25" viewBox="0 0 25 25" fill="none" xmlns="http://www.w3.org/2000/svg">
<mask id="mask0_19_558" style="mask-type:alpha" maskUnits="userSpaceOnUse" x="0" y="0" width="25" height="25">
<rect x="0.25" y="0.5" width="24" height="24" fill="#D9D9D9"/>
</mask>
<g mask="url(#mask0_19_558)">
<path d="M17.323 13H5.75C5.60767 13 5.48875 12.9523 5.39325 12.8568C5.29775 12.7613 5.25 12.6424 5.25 12.5C5.25 12.3577 5.29775 12.2388 5.39325 12.1433C5.48875 12.0478 5.60767 12 5.75 12H17.323L13.5885 8.26552C13.491 8.16802 13.44 8.05327 13.4355 7.92127C13.431 7.7891 13.482 7.66793 13.5885 7.55777C13.6987 7.44743 13.8176 7.39135 13.9453 7.38952C14.0728 7.38752 14.1917 7.44169 14.302 7.55202L18.6845 11.9345C18.7718 12.0219 18.8331 12.111 18.8682 12.202C18.9036 12.293 18.9212 12.3924 18.9212 12.5C18.9212 12.6077 18.9036 12.707 18.8682 12.798C18.8331 12.889 18.7718 12.9782 18.6845 13.0655L14.302 17.448C14.2045 17.5455 14.0887 17.5965 13.9548 17.601C13.8208 17.6055 13.6987 17.5526 13.5885 17.4423C13.482 17.3321 13.4278 17.2142 13.426 17.0885C13.424 16.9629 13.4782 16.8449 13.5885 16.7345L17.323 13Z" fill="white"/>
</g>
</svg>
