<svg width="16" height="9" viewBox="0 0 16 9" fill="none" xmlns="http://www.w3.org/2000/svg">
<path d="M1.85038 8.25015C1.58785 8.25015 1.37642 8.16078 1.21609 7.98203C1.05575 7.80328 0.975586 7.59474 0.975586 7.3564C0.975586 7.29682 1.07002 7.09189 1.25888 6.74161L7.05904 0.941986C7.19229 0.808375 7.3362 0.705458 7.49075 0.633236C7.64531 0.561013 7.81521 0.524902 8.00046 0.524902C8.18571 0.524902 8.35561 0.561013 8.51017 0.633236C8.66473 0.705458 8.80881 0.808375 8.94242 0.941986L14.7431 6.74269C14.8229 6.8225 14.8899 6.91549 14.9441 7.02165C14.9983 7.12746 15.0253 7.24085 15.0253 7.36182C15.0253 7.60413 14.9452 7.81267 14.7848 7.98744C14.6245 8.16258 14.4131 8.25015 14.1505 8.25015H1.85038Z" fill="white"/>
</svg>
