<svg width="37" height="37" viewBox="0 0 37 37" fill="none" xmlns="http://www.w3.org/2000/svg">
<mask id="mask0_8_259" style="mask-type:alpha" maskUnits="userSpaceOnUse" x="0" y="0" width="37" height="37">
<rect width="37" height="37" fill="#D9D9D9"/>
</mask>
<g mask="url(#mask0_8_259)">
<path d="M18.5 18.0256C17.0161 18.0256 15.7459 17.4973 14.6894 16.4407C13.6326 15.3839 13.1042 14.1136 13.1042 12.6297C13.1042 11.1459 13.6326 9.87566 14.6894 8.81911C15.7459 7.76229 17.0161 7.23389 18.5 7.23389C19.9839 7.23389 21.2541 7.76229 22.3106 8.81911C23.3674 9.87566 23.8958 11.1459 23.8958 12.6297C23.8958 14.1136 23.3674 15.3839 22.3106 16.4407C21.2541 17.4973 19.9839 18.0256 18.5 18.0256ZM6.9375 29.7661V26.3386C6.9375 25.5837 7.14254 24.8846 7.55263 24.2412C7.96271 23.5978 8.51077 23.1032 9.19681 22.7573C10.7205 22.0104 12.2577 21.4501 13.8083 21.0765C15.359 20.7029 16.9229 20.5161 18.5 20.5161C20.0771 20.5161 21.641 20.7029 23.1917 21.0765C24.7423 21.4501 26.2795 22.0104 27.8032 22.7573C28.4892 23.1032 29.0373 23.5978 29.4474 24.2412C29.8575 24.8846 30.0625 25.5837 30.0625 26.3386V29.7661H6.9375ZM9.25 27.4536H27.75V26.3386C27.75 26.0264 27.6596 25.7374 27.4787 25.4714C27.2978 25.2057 27.0523 24.9889 26.7421 24.8208C25.4137 24.1667 24.0594 23.671 22.6791 23.3339C21.2985 22.997 19.9055 22.8286 18.5 22.8286C17.0945 22.8286 15.7015 22.997 14.3209 23.3339C12.9406 23.671 11.5863 24.1667 10.2579 24.8208C9.94773 24.9889 9.70222 25.2057 9.52133 25.4714C9.34044 25.7374 9.25 26.0264 9.25 26.3386V27.4536ZM18.5 15.7131C19.3479 15.7131 20.0738 15.4111 20.6776 14.8073C21.2814 14.2035 21.5833 13.4776 21.5833 12.6297C21.5833 11.7818 21.2814 11.0559 20.6776 10.4521C20.0738 9.8483 19.3479 9.54639 18.5 9.54639C17.6521 9.54639 16.9262 9.8483 16.3224 10.4521C15.7186 11.0559 15.4167 11.7818 15.4167 12.6297C15.4167 13.4776 15.7186 14.2035 16.3224 14.8073C16.9262 15.4111 17.6521 15.7131 18.5 15.7131Z" fill="white"/>
</g>
</svg>
