<svg width="33" height="33" viewBox="0 0 33 33" fill="none" xmlns="http://www.w3.org/2000/svg">
<mask id="mask0_8_268" style="mask-type:alpha" maskUnits="userSpaceOnUse" x="0" y="0" width="33" height="33">
<rect width="32.8949" height="32.8949" fill="#D9D9D9"/>
</mask>
<g mask="url(#mask0_8_268)">
<path d="M26.7854 28.2033L18.1769 19.5944C17.4916 20.1602 16.7035 20.6031 15.8126 20.9229C14.9217 21.2427 14.0001 21.4026 13.0477 21.4026C10.7051 21.4026 8.72248 20.5915 7.0999 18.9694C5.47731 17.3473 4.66602 15.3651 4.66602 13.023C4.66602 10.681 5.47708 8.69819 7.09921 7.07446C8.72134 5.45096 10.7035 4.63921 13.0456 4.63921C15.3876 4.63921 17.3704 5.4505 18.9941 7.07308C20.6176 8.69567 21.4294 10.6783 21.4294 13.0209C21.4294 13.9997 21.2651 14.9346 20.9367 15.8255C20.6079 16.7164 20.1694 17.4913 19.6212 18.1501L28.2297 26.7586L26.7854 28.2033ZM13.0477 19.347C14.8137 19.347 16.3096 18.7341 17.5351 17.5083C18.7609 16.2827 19.3738 14.7869 19.3738 13.0209C19.3738 11.2548 18.7609 9.75904 17.5351 8.53348C16.3096 7.30769 14.8137 6.69479 13.0477 6.69479C11.2817 6.69479 9.78585 7.30769 8.56029 8.53348C7.3345 9.75904 6.7216 11.2548 6.7216 13.0209C6.7216 14.7869 7.3345 16.2827 8.56029 17.5083C9.78585 18.7341 11.2817 19.347 13.0477 19.347Z" fill="white"/>
</g>
</svg>
