<?xml version="1.0" encoding="UTF-8"?>
<svg id="Layer_1" data-name="Layer 1" xmlns="http://www.w3.org/2000/svg" version="1.1" viewBox="0 0 1108.07 239.13">
  <defs>
    <style>
      .cls-1 {
        fill: #fff;
        stroke-width: 0px;
      }
    </style>
  </defs>
  <g>
    <path class="cls-1" d="M201.98,214.4c-19.82,0-35.04-7.59-45.28-15.13-14.5-10.69-22.04-23.38-22.78-24.67-2.99-5.06-9.96-18.6-10.86-35.88-1.07-20.51,6.99-39.34,23.32-54.46,26.23-24.29,24.16-49.52,21.31-59.03-6.63.36-12.64,1.92-16.82,3.31-2.37.79-4.89,1.96-7.69,3.59-.23.14-.5.31-.79.51-2.81,1.84-8.68,5.67-17.51,4.96-8.23-.66-14.55-3.69-17.97-5.74-33.24,2.47-56.92,17.48-70.41,44.64-7.77,15.65-9.97,31.28-10.6,38.66,21.32,11.89,44.48,9.88,55.85,7.8-6.23-21.57-22.4-39-22.58-39.19-3.02-3.22-2.86-8.28.35-11.3,3.21-3.02,8.27-2.88,11.3.34.95,1.01,23.43,25.13,28.38,54.81l1.13,6.8-6.56,2.12c-1.76.57-43.51,13.66-80.47-10.3l-3.65-2.36v-4.35c0-1,.13-24.86,12.23-49.58,11.36-23.22,35.64-51.48,86.76-54.23l3-.16,2.36,1.85h0s4.97,3.67,12.15,4.25c3.38.27,5.47-1.09,7.48-2.4.55-.36,1.05-.68,1.49-.94,3.77-2.2,7.28-3.82,10.72-4.96,6.44-2.13,16.39-4.58,27.28-4.14l3.52.14,2.27,2.69c6.41,7.6,17.28,47.91-21.66,83.96-31.5,29.16-13.46,63.84-9.52,70.5l.08.13c.99,1.73,25.18,42.73,73.5,28.92,30.6-8.74,38.82-33.89,41-48.1,2.94-19.2-2.53-37.94-15-51.43-4.59-4.96-14.09-13.02-29.6-16.41-1.68,9-6.66,19.34-18.25,23.88-10.64,4.16-16.08,10.49-16.63,19.36-.62,9.85-7.01,20.56-14.44,25.86.65,3.07,1.91,7.22,4.37,11.3,6.07,10.06,16.77,15.28,31.79,15.5,4.42.07,7.95,3.7,7.88,8.12-.07,4.38-3.63,7.88-8,7.88-.04,0-.08,0-.12,0-26.5-.4-39.47-13.25-45.69-23.96-6.53-11.26-6.89-22.15-6.92-23.36l-.12-7.18,6.79-.85c2.44-1.13,8.07-7.91,8.47-14.31.67-10.65,5.85-25.07,26.77-33.26,9.4-3.68,8.75-17.57,8.74-17.71l-.51-9.28,9.25.83c25.66,2.43,41.05,15.28,47.94,22.73,15.8,17.08,22.76,40.67,19.08,64.71-2.22,14.49-11.77,49.44-52.42,61.06-8.51,2.43-16.43,3.46-23.71,3.46Z"/>
    <g>
      <path class="cls-1" d="M86.05,230.06c-4.42,0-8-3.58-8-8v-60.83c0-4.42,3.58-8,8-8s8,3.58,8,8v60.83c0,4.42-3.58,8-8,8Z"/>
      <path class="cls-1" d="M116.46,199.65h-60.83c-4.42,0-8-3.58-8-8s3.58-8,8-8h60.83c4.42,0,8,3.58,8,8s-3.58,8-8,8Z"/>
    </g>
  </g>
  <g>
    <path class="cls-1" d="M410.12,66.62c-7.15,1.07-14.4,1.76-21.75,2.07v6.89h53.77v16.85h-124.38v-16.85h53.77v-7.05c-7.35-.41-13.76-1.4-19.22-2.99-5.46-1.58-9.52-3.75-12.18-6.51-2.55-2.76-4.39-5.56-5.51-8.42-1.12-2.86-1.69-6.07-1.69-9.65,0-2.14.25-4.9.77-8.27h-6.13V15.84h101.71v16.85h-76.9c-.72,2.96-1.07,5.62-1.07,7.97,0,2.76.77,5,2.3,6.74,1.43,1.53,4.42,2.68,8.96,3.45,4.54.77,10.03,1.15,16.47,1.15,8.68,0,17.69-.64,27.04-1.92,9.34-1.28,17.08-2.99,23.21-5.13v17.77c-5.62,1.53-12,2.83-19.15,3.91ZM334.07,112.96c2.7-4.08,6.46-7.33,11.26-9.73,4.8-2.4,10.21-3.6,16.24-3.6h36.76c6.02,0,11.44,1.2,16.24,3.6,4.8,2.4,8.55,5.64,11.26,9.73,2.7,4.09,4.06,8.53,4.06,13.33v1.07c0,6.74-2.66,12.51-7.97,17.31-5.31,4.8-12.71,7.86-22.21,9.19-7.15,1.02-13.74,1.53-19.76,1.53s-12.61-.51-19.76-1.53c-9.5-1.33-16.9-4.39-22.21-9.19-5.31-4.8-7.97-10.57-7.97-17.31v-1.07c0-4.8,1.35-9.24,4.06-13.33ZM351.99,133.64c2.4,1.74,6.05,2.96,10.95,3.68,6.74.92,12.41,1.38,17,1.38s10.26-.46,17-1.38c4.9-.72,8.55-1.94,10.95-3.68,2.4-1.74,3.6-3.83,3.6-6.28v-1.07c0-2.76-1.2-5.08-3.6-6.97-2.4-1.89-5.59-2.83-9.57-2.83h-36.76c-3.98,0-7.18.95-9.57,2.83-2.4,1.89-3.6,4.21-3.6,6.97v1.07c0,2.45,1.2,4.54,3.6,6.28Z"/>
    <path class="cls-1" d="M461.74,112.65h76.59c1.84,0,3.24-.23,4.21-.69.97-.46,1.46-1.05,1.46-1.76,0-1.53-3.14-2.81-9.42-3.83-6.28-1.02-14.02-1.53-23.21-1.53-16.24,0-30.64,1.48-43.2,4.44l-3.98-16.54c11.03-2.55,23.79-4.08,38.29-4.6v-5.21h-53v-16.54h124.38v16.54h-53v5.36c11.54.51,20.12,1.63,25.73,3.37,5.11,1.63,8.99,4.14,11.64,7.51,2.65,3.37,3.98,7.05,3.98,11.03,0,3.37-.95,6.54-2.83,9.5-1.89,2.96-4.65,5.34-8.27,7.12-3.63,1.79-7.89,2.68-12.79,2.68h-51.47c-.72.92-1.07,1.79-1.07,2.6,0,1.53,1.23,2.86,3.68,3.98,3.68,1.63,10.01,2.45,18.99,2.45s19.27-.87,30.56-2.6c11.28-1.74,21.42-4.08,30.41-7.05l5.82,15.93c-9.5,3.16-20.27,5.69-32.32,7.58-12.05,1.89-23.34,2.83-33.85,2.83-12.25,0-21.24-1.28-26.96-3.83-4.9-2.25-8.58-5.03-11.03-8.35-2.45-3.32-3.68-6.82-3.68-10.49,0-.82.1-1.84.31-3.06h-5.97v-16.85ZM460.82,15.84h100.18v44.42h-73.37c-6.64,0-12.08-1.61-16.31-4.83-4.24-3.22-6.36-7.89-6.36-14.02,0-2.65.46-5.56,1.38-8.73h-5.51V15.84ZM483.03,41.42c0,.92.31,1.48.92,1.69.61.21,1.84.31,3.68.31h54.99v-10.72h-54.53c-1.33,1.33-2.81,3.17-4.44,5.51-.41,1.84-.61,2.91-.61,3.22Z"/>
    <path class="cls-1" d="M705.6,139.92h-124.38v-16.85h53.15v-25.43c-11.33-1.02-20.88-4.08-28.64-9.19-7.76-5.11-11.64-12.92-11.64-23.44V18.14h18.38v20.83c5.82-1.94,12.56-2.91,20.22-2.91,12.56,0,26.45,2.2,41.66,6.59v-22.52h18.38v41.51c0,10.83-3.63,19.22-10.88,25.2-7.25,5.97-16.95,9.57-29.1,10.8v25.43h52.85v16.85ZM620.66,77.42c5.46,2.55,12.38,3.83,20.76,3.83,3.06,0,6.02-.15,8.88-.46,8.27-.82,14.35-2.7,18.23-5.67,3.88-2.96,5.82-7.45,5.82-13.48v-1.38c-7.05-2.35-14.27-4.26-21.67-5.74-7.41-1.48-14.07-2.22-19.99-2.22-13.48,0-20.22,4.24-20.22,12.71,0,5.72,2.73,9.86,8.19,12.41Z"/>
    <path class="cls-1" d="M785.55,26.72h40.9v16.85h-15.47c4.08,6.03,6.13,13.43,6.13,22.21,0,9.8-2.63,18.13-7.89,24.97-5.26,6.84-13,11.13-23.21,12.87v19.45h51.31v16.85h-124.38v-16.85h54.69v-19.45c-10.21-1.74-17.95-6.02-23.21-12.87-5.26-6.84-7.89-15.16-7.89-24.97,0-8.78,2.04-16.18,6.13-22.21h-15.47v-16.85h39.83c-.51-4.49-.77-10.82-.77-18.99h18.38c0,8.68.31,15.01.92,18.99ZM798.73,65.78c0-13.99-7.3-20.99-21.9-20.99s-21.9,7-21.9,20.99,7.3,21.75,21.9,21.75,21.9-7.25,21.9-21.75Z"/>
    <path class="cls-1" d="M943.94,17.22v92.21h-18.38v-57.6h-9.8c3.78,4.29,5.67,10.06,5.67,17.31,0,3.98-.59,8.04-1.76,12.18-1.17,4.14-2.68,7.84-4.52,11.11h-22.06c2.65-3.16,4.98-6.79,6.97-10.88,1.99-4.08,2.99-7.81,2.99-11.18,0-3.16-.97-5.67-2.91-7.51-1.43,7.97-4.57,14.32-9.42,19.07-4.85,4.75-11.82,7.12-20.91,7.12-4.29,0-8.07-.94-11.34-2.83-3.27-1.89-5.74-4.39-7.43-7.51-1.68-3.11-2.53-6.46-2.53-10.03,0-3.88,1.05-7.66,3.14-11.33,2.09-3.68,5.29-6.82,9.57-9.42,4.29-2.6,9.6-4.31,15.93-5.13l5.36-.46v-22.67h18.38v23.74c4.6,1.02,8.42,2.76,11.49,5.21v-15.16h13.17v-16.24h18.38ZM878.53,69.07c1.94-2.09,3.16-5.33,3.68-9.73l-2.6.31c-4.08.51-7.25,1.74-9.5,3.68-2.25,1.94-3.37,3.88-3.37,5.82,0,.92.28,1.66.84,2.22.56.56,1.4.84,2.53.84,3.68,0,6.48-1.05,8.42-3.14ZM949.68,153.32c-8.33,1.07-16.37,1.61-24.13,1.61-9.19,0-17.23-.84-24.13-2.53-6.89-1.69-11.97-4.32-15.24-7.89-2.96-3.27-5.05-7-6.28-11.18s-1.84-8.93-1.84-14.25c0-4.19.36-9.6,1.07-16.24l18.38,1.84c-.61,5.82-.92,10.72-.92,14.71,0,6.95,1.02,11.44,3.06,13.48,1.53,1.63,4.54,2.88,9.04,3.75,4.49.87,9.96,1.3,16.39,1.3,7.45,0,15.5-.56,24.13-1.69,8.63-1.12,16.82-2.76,24.58-4.9v17.46c-7.76,1.94-15.8,3.45-24.12,4.52ZM969.98,15.69v93.75h-18.38V15.69h18.38Z"/>
    <path class="cls-1" d="M1060.05,36.83h-73.83v-16.85h73.83v16.85ZM1030.48,134.25c-16.54,0-28.49-5.72-35.84-17.16-3.37-5.1-5.05-10.98-5.05-17.62s1.89-14.91,5.67-23.9h-9.04v-16.85h67.71v16.85h-38.91c-4.8,9.91-7.2,17.97-7.2,24.2,0,3.17.71,5.87,2.14,8.12,4.19,6.33,11.18,9.5,20.99,9.5,4.7,0,9.93-.61,15.7-1.84,5.77-1.23,12.89-3.01,21.37-5.36v17.62c-15.42,4.29-27.93,6.43-37.53,6.43ZM1095.58,15.69v133.57h-18.38v-61.42h-17v-18.38h17V15.69h18.38Z"/>
  </g>
  <g>
    <path class="cls-1" d="M352.1,220.82l-3.29-8.69h-18.82l-3.29,8.69h-8.29l17.3-46.06h7.37l17.3,46.06h-8.29ZM346.11,204.89l-6.71-17.7-6.71,17.7h13.42Z"/>
    <path class="cls-1" d="M364.33,220.82v-34.21h7.9l.79,5.33c1.32-2.02,2.87-3.56,4.67-4.64,1.8-1.07,3.79-1.61,5.99-1.61.96,0,1.82.09,2.57.26,3.25.57,5.7,2.43,7.37,5.59,1.67,3.16,2.5,6.87,2.5,11.12v18.16h-7.9v-16.19c0-2.37-.37-4.5-1.12-6.38-.75-1.89-2-3.14-3.75-3.75-.66-.22-1.32-.33-1.97-.33-1.36,0-2.75.35-4.18,1.05-1.43.7-2.61,1.72-3.55,3.06-.94,1.34-1.41,2.93-1.41,4.77v17.77h-7.9Z"/>
    <path class="cls-1" d="M404.77,180.94c-.94-.92-1.41-2.04-1.41-3.36s.47-2.5,1.41-3.42c.94-.92,2.07-1.38,3.39-1.38s2.44.46,3.39,1.38c.94.92,1.41,2.06,1.41,3.42s-.47,2.43-1.41,3.36c-.94.92-2.07,1.38-3.39,1.38s-2.45-.46-3.39-1.38ZM404.21,220.82v-34.81h7.9v34.81h-7.9Z"/>
    <path class="cls-1" d="M420.19,220.82v-34.21h7.9l.79,5.33c1.32-2.02,2.87-3.56,4.67-4.64,1.8-1.07,3.79-1.61,5.99-1.61.96,0,1.82.09,2.57.26,3.42.61,6.01,2.74,7.76,6.38,1.36-2.02,3.19-3.62,5.49-4.8,2.3-1.18,4.62-1.78,6.94-1.78.7,0,1.38.07,2.04.2,3.25.57,5.7,2.43,7.37,5.59,1.67,3.16,2.5,6.87,2.5,11.12v18.16h-7.9v-16.19c0-3.46-.66-6.06-1.97-7.8-1.32-1.73-2.92-2.6-4.8-2.6-1.27,0-2.49.37-3.65,1.12-1.16.75-2.11,1.8-2.83,3.16-.72,1.36-1.09,2.92-1.09,4.67v17.63h-7.9v-16.19c0-3.55-.68-6.19-2.04-7.9-1.36-1.71-3.05-2.57-5.07-2.57-1.45,0-2.85.4-4.21,1.18-1.36.79-2.48,1.86-3.36,3.22-.88,1.36-1.32,2.85-1.32,4.47v17.77h-7.9Z"/>
    <path class="cls-1" d="M494.28,185.61c5.61,0,9.34,1.51,11.19,4.54,1.84,3.03,2.76,6.6,2.76,10.72,0,3.77.21,7.15.62,10.13.42,2.98,1.17,5.66,2.27,8.03l-7.11,3.03c-.92-1.36-1.6-2.83-2.04-4.41-1.27,1.05-2.57,1.86-3.88,2.43-1.32.57-2.79.94-4.41,1.12-.75.09-1.78.13-3.09.13-4.47,0-7.56-.94-9.24-2.83-1.69-1.89-2.53-4.06-2.53-6.51,0-4.25,2.02-7.41,6.05-9.47,4.04-2.06,9.15-3.62,15.33-4.67-.18-1.71-.69-3.03-1.55-3.95-.85-.92-2.29-1.38-4.31-1.38-2.37,0-5.68.7-9.94,2.11l-2.5-6.84c4.78-1.45,8.9-2.17,12.37-2.17ZM490.86,214.43c.79,0,1.71-.07,2.76-.2,1.36-.17,2.67-.54,3.95-1.09,1.27-.55,2.37-1.17,3.29-1.88-.18-1.1-.31-2.7-.4-4.8,0-.83-.02-1.47-.07-1.91-3.99.7-7.27,1.7-9.84,2.99-2.57,1.29-3.85,2.77-3.85,4.44s1.38,2.43,4.15,2.43Z"/>
    <path class="cls-1" d="M528.03,221.14c-3.51,0-6.33-.95-8.45-2.86-2.13-1.91-3.19-4.66-3.19-8.26v-35.27h7.89v35.27c0,1.36.29,2.36.86,2.99.57.64,1.51.95,2.83.95,1.23,0,2.65-.22,4.28-.66l1.97,6.97c-2.11.57-4.17.85-6.19.85Z"/>
    <path class="cls-1" d="M550.67,176.27c4.56-1.18,9.08-1.78,13.55-1.78,5.4,0,9.83,1.05,13.29,3.16s5.2,5.62,5.2,10.53c0,5.26-1.42,9.45-4.24,12.57-2.83,3.12-6.85,4.67-12.07,4.67-2.46,0-5.07-.35-7.83-1.05v16.45h-7.89v-44.54ZM566.39,198.25c2.89,0,5.02-.86,6.38-2.57,1.36-1.71,2.04-4.21,2.04-7.5,0-2.32-.89-4-2.66-5.03-1.78-1.03-4.2-1.55-7.27-1.55-1.84,0-3.95.18-6.32.53v14.67c3.03.97,5.64,1.45,7.83,1.45Z"/>
    <path class="cls-1" d="M587.32,220.82v-34.21h7.89l.66,5.07c1.27-1.75,2.85-3.16,4.74-4.21s3.9-1.58,6.05-1.58,4.41.59,6.51,1.78l-4.21,8.36c-1.4-1.1-2.98-1.64-4.74-1.64-1.54,0-2.99.42-4.38,1.25-1.38.83-2.5,1.97-3.36,3.42-.86,1.45-1.28,3-1.28,4.67v17.11h-7.89Z"/>
    <path class="cls-1" d="M623.21,219.43c-2.48-1.4-4.44-3.43-5.89-6.09-1.45-2.65-2.17-5.8-2.17-9.44s.72-6.79,2.17-9.44c1.45-2.65,3.41-4.68,5.89-6.09,2.48-1.4,5.21-2.11,8.19-2.11s5.78.7,8.26,2.11c2.48,1.4,4.44,3.43,5.89,6.09,1.45,2.65,2.17,5.8,2.17,9.44s-.72,6.79-2.17,9.44c-1.45,2.65-3.41,4.68-5.89,6.09-2.48,1.4-5.23,2.11-8.26,2.11s-5.71-.7-8.19-2.11ZM637.48,211.64c1.56-1.78,2.34-4.35,2.34-7.73s-.78-5.95-2.34-7.73c-1.56-1.78-3.59-2.66-6.09-2.66s-4.46.89-6.02,2.66c-1.56,1.78-2.34,4.35-2.34,7.73s.78,5.95,2.34,7.73c1.56,1.78,3.56,2.66,6.02,2.66s4.53-.89,6.09-2.66Z"/>
    <path class="cls-1" d="M664.23,175.09v11.32h10.59v7.24h-10.59v11.71c0,3.07.33,5.32.99,6.74.66,1.43,1.82,2.14,3.49,2.14,1.4,0,3.36-.57,5.86-1.71l3.29,6.58c-3.51,1.67-6.67,2.5-9.47,2.5-3.86,0-6.83-1.46-8.92-4.38-2.08-2.92-3.12-6.88-3.12-11.88v-11.71h-5.99v-7.24h5.99v-11.32h7.9Z"/>
    <path class="cls-1" d="M683.31,194.23c1.45-2.67,3.42-4.71,5.92-6.12,2.5-1.4,5.26-2.11,8.29-2.11,2.68,0,5.07.74,7.17,2.2,2.11,1.47,3.75,3.44,4.94,5.92,1.18,2.48,1.78,5.19,1.78,8.13,0,1.01-.11,2.22-.33,3.62h-21.91c.31,2.76,1.22,4.86,2.73,6.28,1.51,1.43,3.39,2.14,5.62,2.14,1.49,0,2.95-.37,4.38-1.12,1.42-.75,3.39-2.08,5.89-4.01l4.87,5.66c-2.9,2.28-5.48,3.97-7.76,5.07-2.28,1.1-4.74,1.65-7.37,1.65-3.07,0-5.85-.71-8.32-2.14-2.48-1.43-4.44-3.48-5.89-6.15-1.45-2.67-2.17-5.86-2.17-9.54s.72-6.8,2.17-9.47ZM703.05,199.3c-.22-1.75-.83-3.2-1.84-4.34-1.01-1.14-2.24-1.71-3.69-1.71-1.89,0-3.53.52-4.93,1.55-1.4,1.03-2.39,2.53-2.96,4.51h13.42Z"/>
    <path class="cls-1" d="M739.27,219.73c-2.3,1.21-4.84,1.81-7.6,1.81-3.07,0-5.85-.71-8.32-2.14-2.48-1.43-4.44-3.48-5.89-6.15-1.45-2.67-2.17-5.86-2.17-9.54s.72-6.8,2.17-9.47c1.45-2.67,3.42-4.71,5.92-6.12,2.5-1.4,5.26-2.11,8.29-2.11,3.64,0,6.56.99,8.75,2.96,2.19,1.97,3.64,4.3,4.34,6.97l-7.63,1.84c-.75-3.03-2.57-4.54-5.46-4.54-2.54,0-4.6.9-6.15,2.7-1.56,1.8-2.33,4.39-2.33,7.76s.78,6.04,2.33,7.86c1.56,1.82,3.61,2.73,6.15,2.73,1.49,0,2.87-.36,4.15-1.09,1.27-.72,2.72-1.96,4.34-3.72l5.79,5c-2.15,2.28-4.38,4.02-6.68,5.23Z"/>
    <path class="cls-1" d="M763.12,175.09v11.32h10.59v7.24h-10.59v11.71c0,3.07.33,5.32.99,6.74.66,1.43,1.82,2.14,3.49,2.14,1.4,0,3.36-.57,5.86-1.71l3.29,6.58c-3.51,1.67-6.67,2.5-9.47,2.5-3.86,0-6.83-1.46-8.92-4.38-2.08-2.92-3.12-6.88-3.12-11.88v-11.71h-5.99v-7.24h5.99v-11.32h7.9Z"/>
    <path class="cls-1" d="M784.07,180.94c-.94-.92-1.41-2.04-1.41-3.36s.47-2.5,1.41-3.42c.94-.92,2.07-1.38,3.39-1.38s2.44.46,3.39,1.38c.94.92,1.41,2.06,1.41,3.42s-.47,2.43-1.41,3.36c-.94.92-2.07,1.38-3.39,1.38s-2.45-.46-3.39-1.38ZM783.52,220.82v-34.81h7.9v34.81h-7.9Z"/>
    <path class="cls-1" d="M805.59,219.43c-2.48-1.4-4.44-3.43-5.89-6.09-1.45-2.65-2.17-5.8-2.17-9.44s.72-6.79,2.17-9.44c1.45-2.65,3.41-4.68,5.89-6.09,2.48-1.4,5.21-2.11,8.19-2.11s5.78.7,8.26,2.11c2.48,1.4,4.44,3.43,5.89,6.09,1.45,2.65,2.17,5.8,2.17,9.44s-.72,6.79-2.17,9.44c-1.45,2.65-3.41,4.68-5.89,6.09-2.48,1.4-5.23,2.11-8.26,2.11s-5.71-.7-8.19-2.11ZM819.87,211.64c1.56-1.78,2.34-4.35,2.34-7.73s-.78-5.95-2.34-7.73c-1.56-1.78-3.58-2.66-6.09-2.66s-4.46.89-6.02,2.66c-1.56,1.78-2.33,4.35-2.33,7.73s.78,5.95,2.33,7.73c1.56,1.78,3.56,2.66,6.02,2.66s4.53-.89,6.09-2.66Z"/>
    <path class="cls-1" d="M834.7,220.82v-34.21h7.9l.79,5.33c1.32-2.02,2.87-3.56,4.67-4.64,1.8-1.07,3.79-1.61,5.99-1.61.96,0,1.82.09,2.57.26,3.25.57,5.7,2.43,7.37,5.59,1.67,3.16,2.5,6.87,2.5,11.12v18.16h-7.9v-16.19c0-2.37-.37-4.5-1.12-6.38-.75-1.89-2-3.14-3.75-3.75-.66-.22-1.32-.33-1.97-.33-1.36,0-2.75.35-4.18,1.05-1.43.7-2.61,1.72-3.55,3.06-.94,1.34-1.41,2.93-1.41,4.77v17.77h-7.9Z"/>
    <path class="cls-1" d="M916.03,219.14c-3.07,1.6-6.45,2.4-10.13,2.4-4.04,0-7.69-.94-10.96-2.83-3.27-1.89-5.87-4.63-7.8-8.22-1.93-3.6-2.89-7.85-2.89-12.76s.95-9.22,2.86-12.8c1.91-3.57,4.51-6.29,7.8-8.16,3.29-1.86,6.95-2.8,10.99-2.8,3.25,0,6.06.64,8.46,1.91,2.39,1.27,4.28,2.9,5.66,4.87,1.38,1.97,2.36,4.06,2.93,6.25l-7.63,1.71c-.57-2.24-1.62-4.05-3.16-5.43-1.54-1.38-3.62-2.07-6.25-2.07s-4.98.63-7.04,1.88c-2.06,1.25-3.7,3.11-4.9,5.59-1.21,2.48-1.81,5.49-1.81,9.05s.6,6.58,1.81,9.08c1.21,2.5,2.84,4.38,4.9,5.63,2.06,1.25,4.41,1.88,7.04,1.88,2.41,0,4.64-.56,6.68-1.68,2.04-1.12,4.26-2.97,6.68-5.56l5.79,5c-2.94,3.11-5.94,5.47-9.01,7.07Z"/>
    <path class="cls-1" d="M931.82,194.23c1.45-2.67,3.42-4.71,5.92-6.12,2.5-1.4,5.26-2.11,8.29-2.11,2.67,0,5.07.74,7.17,2.2,2.11,1.47,3.75,3.44,4.93,5.92,1.18,2.48,1.78,5.19,1.78,8.13,0,1.01-.11,2.22-.33,3.62h-21.91c.31,2.76,1.22,4.86,2.73,6.28,1.51,1.43,3.39,2.14,5.63,2.14,1.49,0,2.95-.37,4.38-1.12,1.43-.75,3.39-2.08,5.89-4.01l4.87,5.66c-2.89,2.28-5.48,3.97-7.76,5.07-2.28,1.1-4.74,1.65-7.37,1.65-3.07,0-5.85-.71-8.32-2.14-2.48-1.43-4.44-3.48-5.89-6.15-1.45-2.67-2.17-5.86-2.17-9.54s.72-6.8,2.17-9.47ZM951.56,199.3c-.22-1.75-.83-3.2-1.84-4.34-1.01-1.14-2.24-1.71-3.68-1.71-1.89,0-3.53.52-4.93,1.55-1.4,1.03-2.39,2.53-2.96,4.51h13.42Z"/>
    <path class="cls-1" d="M965.77,220.82v-34.21h7.9l.79,5.33c1.32-2.02,2.87-3.56,4.67-4.64,1.8-1.07,3.79-1.61,5.99-1.61.96,0,1.82.09,2.57.26,3.25.57,5.7,2.43,7.37,5.59,1.67,3.16,2.5,6.87,2.5,11.12v18.16h-7.9v-16.19c0-2.37-.37-4.5-1.12-6.38-.75-1.89-2-3.14-3.75-3.75-.66-.22-1.32-.33-1.97-.33-1.36,0-2.75.35-4.18,1.05-1.43.7-2.61,1.72-3.55,3.06-.94,1.34-1.41,2.93-1.41,4.77v17.77h-7.9Z"/>
    <path class="cls-1" d="M1016.04,175.09v11.32h10.59v7.24h-10.59v11.71c0,3.07.33,5.32.99,6.74.66,1.43,1.82,2.14,3.49,2.14,1.4,0,3.36-.57,5.86-1.71l3.29,6.58c-3.51,1.67-6.67,2.5-9.47,2.5-3.86,0-6.83-1.46-8.92-4.38-2.08-2.92-3.12-6.88-3.12-11.88v-11.71h-5.99v-7.24h5.99v-11.32h7.9Z"/>
    <path class="cls-1" d="M1035.12,194.23c1.45-2.67,3.42-4.71,5.92-6.12,2.5-1.4,5.26-2.11,8.29-2.11,2.67,0,5.07.74,7.17,2.2,2.11,1.47,3.75,3.44,4.93,5.92,1.18,2.48,1.78,5.19,1.78,8.13,0,1.01-.11,2.22-.33,3.62h-21.91c.31,2.76,1.22,4.86,2.73,6.28,1.51,1.43,3.39,2.14,5.63,2.14,1.49,0,2.95-.37,4.38-1.12,1.43-.75,3.39-2.08,5.89-4.01l4.87,5.66c-2.89,2.28-5.48,3.97-7.76,5.07-2.28,1.1-4.74,1.65-7.37,1.65-3.07,0-5.85-.71-8.32-2.14-2.48-1.43-4.44-3.48-5.89-6.15-1.45-2.67-2.17-5.86-2.17-9.54s.72-6.8,2.17-9.47ZM1054.86,199.3c-.22-1.75-.83-3.2-1.84-4.34-1.01-1.14-2.24-1.71-3.68-1.71-1.89,0-3.53.52-4.93,1.55-1.4,1.03-2.39,2.53-2.96,4.51h13.42Z"/>
    <path class="cls-1" d="M1069.07,220.82v-34.21h7.9l.66,5.07c1.27-1.75,2.85-3.16,4.74-4.21,1.88-1.05,3.9-1.58,6.05-1.58s4.41.59,6.51,1.78l-4.21,8.36c-1.4-1.1-2.98-1.64-4.74-1.64-1.54,0-2.99.42-4.38,1.25-1.38.83-2.5,1.97-3.36,3.42-.86,1.45-1.28,3-1.28,4.67v17.11h-7.9Z"/>
  </g>
</svg>