<svg xmlns="http://www.w3.org/2000/svg" xmlns:xlink="http://www.w3.org/1999/xlink" width="128" height="128" viewBox="0 0 128 128">
  <defs>
    <clipPath id="clip-path">
      <rect id="사각형_121" data-name="사각형 121" width="128" height="104.948" fill="none"/>
    </clipPath>
  </defs>
  <g id="그룹_41" data-name="그룹 41" transform="translate(5791 8584)">
    <rect id="사각형_122" data-name="사각형 122" width="128" height="128" transform="translate(-5791 -8584)" fill="none"/>
    <g id="그룹_40" data-name="그룹 40" transform="translate(-5791 -8572.475)">
      <g id="그룹_39" data-name="그룹 39" clip-path="url(#clip-path)">
        <path id="패스_111" data-name="패스 111" d="M91.378,97.508A35.965,35.965,0,0,1,69.866,90.32,41.945,41.945,0,0,1,59.044,78.6a38.757,38.757,0,0,1-5.159-17.046c-.508-9.744,3.321-18.69,11.079-25.873C77.425,24.14,76.442,12.154,75.088,7.636A31.434,31.434,0,0,0,67.1,9.2a19.8,19.8,0,0,0-3.653,1.706c-.114.067-.238.147-.38.242a12.68,12.68,0,0,1-8.319,2.356,19.926,19.926,0,0,1-8.537-2.727c-15.792,1.173-27.042,8.3-33.451,21.208A52.759,52.759,0,0,0,7.72,50.356C17.849,56,28.852,55.049,34.254,54.061c-2.96-10.248-10.642-18.528-10.727-18.619a3.8,3.8,0,0,1,5.535-5.207c.451.48,11.131,11.939,13.483,26.04l.537,3.231-3.117,1.007c-.836.271-20.671,6.49-38.23-4.893L0,54.5V52.432A58.919,58.919,0,0,1,5.81,28.877c5.4-11.032,16.932-24.458,41.219-25.764l1.425-.076,1.121.879a12.244,12.244,0,0,0,5.772,2.019A5.24,5.24,0,0,0,58.9,4.795c.261-.171.5-.323.708-.447A26.846,26.846,0,0,1,64.7,1.992,37.4,37.4,0,0,1,77.663.025l1.672.067,1.078,1.278c3.045,3.611,8.21,22.757-10.29,39.888C55.158,55.111,63.728,71.587,65.6,74.751l.038.062c.47.822,11.958,20.3,34.919,13.74C115.095,84.4,119,72.452,120.036,65.7a29.18,29.18,0,0,0-7.126-24.434,26.812,26.812,0,0,0-14.063-7.8c-.8,4.276-3.164,9.188-8.67,11.345-5.055,1.976-7.639,4.984-7.9,9.2A17.739,17.739,0,0,1,75.415,66.3a17.508,17.508,0,0,0,2.076,5.368c2.884,4.779,7.967,7.259,15.1,7.364a3.8,3.8,0,1,1-.114,7.6c-12.595-.19-18.752-6.295-21.707-11.383a24.738,24.738,0,0,1-3.288-11.1l-.057-3.411,3.226-.4c1.159-.537,3.834-3.758,4.024-6.8.318-5.06,2.779-11.91,12.718-15.8,4.466-1.748,4.157-8.347,4.152-8.414l-.242-4.409,4.395.394a35.109,35.109,0,0,1,22.776,10.8,36.734,36.734,0,0,1,9.065,30.743c-1.055,6.884-5.592,23.488-24.9,29.009A40.93,40.93,0,0,1,91.374,97.5Z" transform="translate(0 0)" fill="#0a1e3f"/>
        <path id="패스_112" data-name="패스 112" d="M70.685,158.514H60.034V147.863a3.8,3.8,0,0,0-7.6,0v10.651H41.781a3.8,3.8,0,0,0,0,7.6H52.432v10.651a3.8,3.8,0,0,0,7.6,0V166.116H70.685a3.8,3.8,0,0,0,0-7.6" transform="translate(-19.936 -75.62)" fill="#cdf74b"/>
      </g>
    </g>
  </g>
</svg>
