<svg xmlns="http://www.w3.org/2000/svg" xmlns:xlink="http://www.w3.org/1999/xlink" width="283.614" height="283.044" viewBox="0 0 283.614 283.044">
  <defs>
    <clipPath id="clip-path">
      <rect id="사각형_91" data-name="사각형 91" width="283.614" height="283.044" fill="none"/>
    </clipPath>
  </defs>
  <g id="slogan02" opacity="0.6">
    <g id="그룹_23" data-name="그룹 23" clip-path="url(#clip-path)">
      <path id="패스_64" data-name="패스 64" d="M32.742,16.306a.577.577,0,0,1,.83.29A60.717,60.717,0,0,1,35.7,22.762a60.745,60.745,0,0,1,10.659,5.228.463.463,0,0,1,.164.737l-1.071,1.6c-.208.322-.535.33-.87.1a43.991,43.991,0,0,0-8.033-4.244A89.711,89.711,0,0,1,38,35.218a.594.594,0,0,1-.575.629l-1.76.218a.549.549,0,0,1-.621-.519A62.509,62.509,0,0,0,30.87,17.841a.615.615,0,0,1,.3-.865Zm5.246-3.984a.594.594,0,0,1,.17-.872l1.4-.938a.592.592,0,0,1,.87.17L44.741,17.1l2.582-1.739a.658.658,0,0,1,.975.191l.533.791a.657.657,0,0,1-.189.975l-2.582,1.739,6.209,9.223a.593.593,0,0,1-.168.87l-1.4.94a.594.594,0,0,1-.87-.17Z" transform="translate(28.645 9.664)" fill="#fff"/>
      <path id="패스_65" data-name="패스 65" d="M41.826,14.425a.582.582,0,0,1-.855-.2l-.589-.975a.576.576,0,0,1,.235-.841A35.906,35.906,0,0,1,48.023,8.8c1.65-.608,2.69.087,2.955,2.079a30.646,30.646,0,0,1,.073,6.7,57.448,57.448,0,0,1,7.614,5.3c.315.22.423.529.183.8l-1.285,1.38c-.262.28-.5.245-.8-.008a44.9,44.9,0,0,0-6.1-4.458,58.692,58.692,0,0,1-2.015,8.318.564.564,0,0,1-.741.432l-1.66-.481a.609.609,0,0,1-.3-.824c1.832-5.722,2.847-11.5,2.32-16.168-.06-.384-.288-.533-.666-.394a35.455,35.455,0,0,0-5.773,2.951m11.6-8.608a.592.592,0,0,1,.324-.826l1.542-.67a.593.593,0,0,1,.826.324l8.459,19.435a.592.592,0,0,1-.324.826l-1.54.67a.592.592,0,0,1-.826-.324Z" transform="translate(37.465 3.962)" fill="#fff"/>
      <path id="패스_66" data-name="패스 66" d="M69.005,20.244a76.927,76.927,0,0,1-8.048,1.868,2.171,2.171,0,0,1-2.739-1.747c-.967-4.771-2.027-10.746-2.731-15.054a.546.546,0,0,1,.386-.681A47.267,47.267,0,0,1,64.321,3c1.6-.162,2.378.461,2.687,2.164.647,3.426,1.666,9.181,2.5,14.332.081.444-.066.623-.5.753M64.217,6.074c-.091-.494-.274-.664-.724-.61a40.647,40.647,0,0,0-4.86.882c.681,4.184,1.492,8.652,2.36,12.879a.473.473,0,0,0,.583.4,40.563,40.563,0,0,0,4.846-1.108c-.735-4.48-1.625-9.239-2.206-12.447m5.01-4.555a.59.59,0,0,1,.506-.728l1.654-.3A.591.591,0,0,1,72.114,1l1.378,7.6,3.061-.556a.658.658,0,0,1,.816.567l.17.938a.659.659,0,0,1-.565.816l-3.059.554L75.9,21.85a.591.591,0,0,1-.506.728l-1.652.3a.593.593,0,0,1-.73-.506Z" transform="translate(51.591 0.444)" fill="#fff"/>
      <path id="패스_67" data-name="패스 67" d="M75.649.877a.589.589,0,0,1,.515.71,57.566,57.566,0,0,1-1.488,6.628,41.164,41.164,0,0,1,4.8,10.042c.095.328.015.529-.286.623l-1.743.573a.509.509,0,0,1-.72-.388,32.18,32.18,0,0,0-3.14-7.531,75.745,75.745,0,0,1-3.21,7.527.6.6,0,0,1-.859.237l-1.442-.8a.612.612,0,0,1-.212-.857A58.869,58.869,0,0,0,73.286,1.09a.615.615,0,0,1,.737-.54Zm5.663,9.754L78.1,10.579a.658.658,0,0,1-.691-.714l.015-.953a.659.659,0,0,1,.714-.691l3.212.054L81.472.848A.593.593,0,0,1,82.11.231l1.53.025a.593.593,0,0,1,.618.637l-.336,20.4a.592.592,0,0,1-.639.618l-1.53-.025a.593.593,0,0,1-.618-.637ZM85.793.617A.591.591,0,0,1,86.432,0L88.01.026a.594.594,0,0,1,.618.637l-.347,21.2a.6.6,0,0,1-.639.618l-1.581-.027a.593.593,0,0,1-.618-.637Z" transform="translate(63.037 0.001)" fill="#fff"/>
      <path id="패스_68" data-name="패스 68" d="M93.283,1.642c4.591.843,7.6,3.9,6.863,7.919a5.974,5.974,0,0,1-4.105,4.705l-.971,5.282,4.786.878a.628.628,0,0,1,.49.8l-.172.938a.63.63,0,0,1-.745.577L80.107,19.195a.658.658,0,0,1-.564-.816l.174-.938a.657.657,0,0,1,.816-.565l4.617.849.979-5.331a6.017,6.017,0,0,1-2.05-5.786c.739-4.022,4.615-5.809,9.2-4.966M91.351,12.154c3.011.554,5.321-.349,5.831-3.138S95.86,4.564,92.847,4.01s-5.294.353-5.805,3.142,1.3,4.449,4.31,5m.88,6.871.789-4.294a11.514,11.514,0,0,1-2.106-.208,12.307,12.307,0,0,1-2.135-.6l-.793,4.319Z" transform="translate(73.961 1.336)" fill="#fff"/>
      <path id="패스_69" data-name="패스 69" d="M93.871,11.66A1.982,1.982,0,1,1,92.7,15.447a1.983,1.983,0,1,1,1.172-3.787" transform="translate(84.834 10.744)" fill="#fff"/>
      <path id="패스_70" data-name="패스 70" d="M99.708,26.734a2.054,2.054,0,0,1-.948-3.011c.714-1.579,1.349-2.945,2.8-5.585a.471.471,0,0,1,.672-.22l1.725.872a.475.475,0,0,1,.22.676c-.27.481-.486.905-.7,1.332l9.065,4.591c.216-.427.407-.863.658-1.355a.472.472,0,0,1,.674-.22l1.723.872a.475.475,0,0,1,.222.674c-1.542,3.157-2.256,4.4-3.571,6.714-.193.324-.484.4-.923.208-3.671-1.579-7.957-3.667-11.617-5.549m2.725-3.877c-.239.469-.454.95-.714,1.465a.631.631,0,0,0,.332.955c2.706,1.372,4.979,2.5,8.4,4.061.386-.7.693-1.309,1.021-1.9ZM114.21,15.21c-1.554,3.065-5.059,3.708-7.967,2.235s-4.464-4.68-2.91-7.747,5.033-3.665,7.944-2.191,4.485,4.636,2.934,7.7m-2.687-1.361a3.113,3.113,0,1,0-5.551-2.814,3.114,3.114,0,1,0,5.551,2.814m7.718-1.689a.593.593,0,0,1,.843-.276l1.5.758a.593.593,0,0,1,.274.843l-4.839,9.557a.594.594,0,0,1-.845.276l-1.5-.758a.594.594,0,0,1-.278-.843Z" transform="translate(91.567 6.267)" fill="#fff"/>
      <path id="패스_71" data-name="패스 71" d="M118.509,26.911c4.134,3.146,5.138,6.466,3.437,8.7s-5.169,2.15-9.3-1-5.138-6.464-3.437-8.7,5.17-2.152,9.3.994m-4.437,5.831c2.575,1.961,4.632,2.2,5.5,1.063s.087-3.055-2.49-5.018-4.63-2.2-5.5-1.061-.087,3.055,2.49,5.016M123.324,14.5c2.5,1.9,3.572,5.209,1.337,8.143s-5.742,2.822-8.237.921-3.58-5.279-1.347-8.214,5.749-2.75,8.247-.849m-5.491,7.172a3.063,3.063,0,0,0,4.472-.822,3.07,3.07,0,1,0-4.871-3.708,3.066,3.066,0,0,0,.4,4.53m12.037-1.812a.592.592,0,0,1,.878-.12l1.337,1.019a.591.591,0,0,1,.12.878l-1.092,1.438,2.474,1.886a.656.656,0,0,1,.133.984l-.531.7a.659.659,0,0,1-.984.133l-2.476-1.886-1.581,2.079,2.476,1.884a.659.659,0,0,1,.133.984l-.531.7a.658.658,0,0,1-.984.133l-2.476-1.884L125.233,30.8a.593.593,0,0,1-.88.118L123.013,29.9a.593.593,0,0,1-.118-.878Z" transform="translate(100.828 12.181)" fill="#fff"/>
      <path id="패스_72" data-name="패스 72" d="M129.8,27.732c2.281,2.5,2.2,6.17-1.15,9.231s-7.052,2.837-9.335.336-2.2-6.207,1.172-9.283,7.031-2.785,9.314-.284m-1.743,1.588c-1.131-1.241-3.183-1.405-5.63.826s-2.5,4.323-1.37,5.564,3.2,1.353,5.647-.878,2.486-4.271,1.353-5.512m11.435,1.108a.593.593,0,0,1,.886.041l1.131,1.241a.593.593,0,0,1-.039.886l-6.853,6.255,2.1,2.3a.66.66,0,0,1-.046.992l-.7.643a.656.656,0,0,1-.99-.046l-2.1-2.3-7.06,6.44a.592.592,0,0,1-.886-.041L123.794,45.6a.593.593,0,0,1,.042-.886Zm-4.319-6.481a.614.614,0,0,1-.058.9l-1.872,1.708,2.976,3.26a.591.591,0,0,1-.041.884l-.76.695a.593.593,0,0,1-.886-.041l-7.876-8.633a.658.658,0,0,1,.044-.992l.648-.593a.66.66,0,0,1,.992.046l2.959,3.242,1.87-1.708a.614.614,0,0,1,.905.023Z" transform="translate(109.508 19.472)" fill="#fff"/>
      <path id="패스_73" data-name="패스 73" d="M143.405,34.187a.588.588,0,0,1-.317.818,57.507,57.507,0,0,1-6.367,2.357,41.064,41.064,0,0,1-5.8,9.5c-.224.259-.434.3-.679.1l-1.428-1.148a.507.507,0,0,1-.066-.814,32.011,32.011,0,0,0,4.6-6.732,75.275,75.275,0,0,1-8.056,1.405.6.6,0,0,1-.666-.591l-.114-1.644a.615.615,0,0,1,.6-.645,58.847,58.847,0,0,0,16.826-4.466.613.613,0,0,1,.853.324Zm-5.1,10.055-1.7-2.721a.658.658,0,0,1,.222-.967l.809-.506a.656.656,0,0,1,.967.222l1.7,2.721,6.3-3.939a.589.589,0,0,1,.863.2l.813,1.3a.594.594,0,0,1-.2.865L130.791,52.235a.594.594,0,0,1-.865-.2l-.811-1.3a.594.594,0,0,1,.2-.865Zm10.837-1.693a.59.59,0,0,1,.863.2l.84,1.339a.594.594,0,0,1-.2.865L132.682,56.2a.594.594,0,0,1-.865-.2l-.838-1.339a.592.592,0,0,1,.2-.865Z" transform="translate(115.796 30.004)" fill="#fff"/>
      <path id="패스_74" data-name="패스 74" d="M151.914,49.266c1.716,4.339.722,8.507-3.08,10.009a5.974,5.974,0,0,1-6.164-.988l-4.991,1.972,1.789,4.524a.627.627,0,0,1-.423.841l-.886.351a.629.629,0,0,1-.884-.326l-7.218-18.262a.659.659,0,0,1,.4-.911l.886-.351a.66.66,0,0,1,.913.4l1.724,4.362,5.037-1.992a6.013,6.013,0,0,1,3.819-4.8c3.8-1.5,7.371.836,9.083,5.174m-15.293,8.311,4.057-1.6a11.466,11.466,0,0,1-.936-1.9,12.226,12.226,0,0,1-.625-2.127l-4.082,1.613Zm5.36-4.383c1.123,2.845,3.111,4.325,5.748,3.283s3.073-3.48,1.947-6.325-3.1-4.3-5.736-3.262-3.084,3.457-1.959,6.3" transform="translate(120.898 40.582)" fill="#fff"/>
      <path id="패스_75" data-name="패스 75" d="M137.848,57.683a1.982,1.982,0,1,1-3.833,1.006,1.983,1.983,0,1,1,3.833-1.006" transform="translate(124.559 52.193)" fill="#fff"/>
      <path id="패스_76" data-name="패스 76" d="M144.461,72.078c.463,5.174-1.312,8.156-4.111,8.407s-5.078-2.368-5.539-7.544,1.31-8.156,4.111-8.407S144,66.9,144.461,72.078m-7.3.654c.288,3.223,1.5,4.906,2.922,4.779s2.316-2,2.027-5.223-1.5-4.906-2.922-4.779-2.316,2-2.027,5.223m9.086.446c-.2-.259-.141-.467.162-.72a22.418,22.418,0,0,0,4.269-4.692,47.08,47.08,0,0,1-5.721-3.092c-.322-.224-.4-.494-.22-.762l.967-1.6a.516.516,0,0,1,.8-.1,33.55,33.55,0,0,0,10.111,4.564.559.559,0,0,1,.469.737l-.407,1.65c-.091.386-.276.554-.691.44a29.325,29.325,0,0,1-2.926-.872,27.742,27.742,0,0,1-4.908,5.985.476.476,0,0,1-.741-.11Zm11.09,2.536a.593.593,0,0,1,.681.569l.151,1.675a.594.594,0,0,1-.569.681l-4.4.392.278,3.1a.655.655,0,0,1-.637.76l-.95.085a.66.66,0,0,1-.764-.637l-.276-3.1-4.7.421a.592.592,0,0,1-.679-.569l-.152-1.675a.594.594,0,0,1,.569-.681Z" transform="translate(125.307 57.732)" fill="#fff"/>
      <path id="패스_77" data-name="패스 77" d="M147.613,86.2a.658.658,0,0,1,.639.762l-.363,4.049,8.65.776a.591.591,0,0,1,.569.679l-.149,1.677a.594.594,0,0,1-.681.569l-21.128-1.893a.593.593,0,0,1-.569-.681l.151-1.673a.592.592,0,0,1,.681-.569l10.125.907.365-4.051a.655.655,0,0,1,.76-.637Zm5.338-9.5a.612.612,0,0,1,.612-.65l1.067-.083a.606.606,0,0,1,.675.616,31.963,31.963,0,0,1,.027,3.632l2.526.226a.616.616,0,0,1,.594.683l-.147,1.625a.615.615,0,0,1-.706.569l-2.55-.23c-.114.7-.22,1.341-.349,1.934-.457,2-1.619,2.6-3.551,1.648a29.619,29.619,0,0,1-4.649-2.961,54.126,54.126,0,0,1-7.9,3.777.565.565,0,0,1-.793-.423l-.515-1.559c-.139-.415.087-.672.477-.813a41.033,41.033,0,0,0,6.309-2.912,60.3,60.3,0,0,1-5.8-5.663.576.576,0,0,1-.019-.884l1.214-1.175a.571.571,0,0,1,.878.052c3.785,4.171,8.009,7.927,11.453,9.719.409.216.7.114.782-.282a27.861,27.861,0,0,0,.361-6.848" transform="translate(125.158 68.705)" fill="#fff"/>
      <path id="패스_78" data-name="패스 78" d="M141.593,90.585c-1.141-.4-2.293-.743-3.381-1.048a.714.714,0,0,0-.992.479,84.748,84.748,0,0,0-2.756,10.906c-.054.374-.288.65-.662.6l-1.083-.149a.607.607,0,0,1-.589-.683,77.76,77.76,0,0,1,3.057-12.178,2.62,2.62,0,0,1,3.536-1.932,45.455,45.455,0,0,1,5.263,1.781.7.7,0,0,1,.39.838l-3.727,13.369a.594.594,0,0,1-.776.438l-1.013-.282a.6.6,0,0,1-.436-.774Zm11.937,13.076a.592.592,0,0,1,.434.772l-.45,1.621a.6.6,0,0,1-.776.434l-4.012-1.119-.836,3a.657.657,0,0,1-.865.486l-.921-.257a.657.657,0,0,1-.488-.865l.838-3-4.038-1.125a.6.6,0,0,1-.436-.776l.452-1.619a.59.59,0,0,1,.772-.434ZM156.9,89.8a.592.592,0,0,1,.434.774l-.452,1.619a.591.591,0,0,1-.772.434c-.888-.274-1.735-.51-2.573-.768l-1.532,5.487c.853.212,1.7.45,2.594.7a.593.593,0,0,1,.436.772l-.446,1.594a.591.591,0,0,1-.772.438c-2.957-.8-5.721-1.544-8.631-2.511-.427-.147-.531-.332-.459-.78a78.167,78.167,0,0,1,1.845-8.112,2.186,2.186,0,0,1,2.77-1.7c2.613.625,4.945,1.328,7.558,2.057m-5.57,1.469-2.173-.527a.473.473,0,0,0-.618.347c-.465,1.668-.832,3.262-1.131,4.9.809.278,1.606.5,2.4.747Z" transform="translate(122.875 80.376)" fill="#fff"/>
      <path id="패스_79" data-name="패스 79" d="M135.5,100.791c-.575-.253-.955-.16-1.21.3a77.927,77.927,0,0,0-4.564,10.169c-.143.347-.4.585-.76.465l-1.046-.374a.61.61,0,0,1-.455-.782,72.005,72.005,0,0,1,5.151-11.416,2.654,2.654,0,0,1,3.827-1.255,15.637,15.637,0,0,1,3.3,1.926.629.629,0,0,1,.234.838l-.909,1.513a.541.541,0,0,1-.863.218,17.782,17.782,0,0,0-2.706-1.6m8.868-2.3a.639.639,0,0,1,.3.93l-8.646,17.638a.628.628,0,0,1-.907.255l-.787-.388a.625.625,0,0,1-.355-.87l8.646-17.64a.66.66,0,0,1,.94-.322Zm5.859,14.554c-2.129,4.346-5.089,6.334-7.815,5s-2.943-4.883-.814-9.227,5.057-6.327,7.784-4.987,2.978,4.866.845,9.216m-6.51-3.194c-1.4,2.862-1.251,4.894.01,5.512s2.982-.494,4.383-3.356,1.218-4.879-.042-5.5-2.947.482-4.35,3.341" transform="translate(118.507 90.715)" fill="#fff"/>
      <path id="패스_80" data-name="패스 80" d="M137.507,131.393a.593.593,0,0,1,.087.884l-1.061,1.3a.594.594,0,0,1-.882.089l-5.987-4.891-1.969,2.411a.658.658,0,0,1-.988.1l-.739-.6a.66.66,0,0,1-.1-.99l1.969-2.411-8.61-7.031a.593.593,0,0,1-.091-.884l1.065-1.3a.592.592,0,0,1,.882-.089Zm5.23-6.645c-2.173,2.661-5.91,2.914-11.159-1.37s-5.767-8.015-3.592-10.677,5.964-2.939,11.211,1.347,5.715,8.038,3.54,10.7M129.83,114.172c-1.094,1.341-.149,3.833,3.623,6.913s6.361,3.478,7.456,2.135.189-3.8-3.582-6.879-6.4-3.509-7.5-2.169" transform="translate(110.651 103)" fill="#fff"/>
      <path id="패스_81" data-name="패스 81" d="M126.154,141.7a.592.592,0,0,1-.069.884l-1.283,1.089a.592.592,0,0,1-.884-.071l-13.736-16.15a.592.592,0,0,1,.071-.884l1.28-1.09a.594.594,0,0,1,.884.073Zm-3.85-9.407c-4.389-5.161-4.186-8.988-1.569-11.217s6.431-1.81,10.82,3.35,4.171,8.969,1.552,11.194-6.413,1.834-10.8-3.327m2.293-1.951c3.156,3.708,5.553,4.435,6.871,3.314s.984-3.6-2.167-7.313-5.585-4.474-6.9-3.352-.953,3.644,2.2,7.351" transform="translate(102.316 111.408)" fill="#fff"/>
      <path id="패스_82" data-name="패스 82" d="M116.642,129.119c.093.409.029.65-.234.8l-10.127,5.846c.249.784.652,1.131,1.264.836a71.518,71.518,0,0,0,9.318-5.495.574.574,0,0,1,.907.172l.531.764a.554.554,0,0,1-.16.878,75.321,75.321,0,0,1-10.231,6.02c-1.627.8-2.936.537-3.738-.855a8.018,8.018,0,0,1-.984-2.358.717.717,0,0,1,.4-.868l10.019-5.782c-.38-.909-.83-1.289-1.44-.936-2.868,1.654-6.271,3.59-9.868,6.045-.357.234-.571.212-.789-.066l-.733-.967a.474.474,0,0,1,.147-.753,115.744,115.744,0,0,1,11-6.7c1.569-.845,2.827-.473,3.8,1.11a6.326,6.326,0,0,1,.924,2.308m6.261,4.817a.641.641,0,0,1-.272.938L105.614,144.7a.627.627,0,0,1-.894-.3l-.4-.7a.626.626,0,0,1,.191-.921l17.019-9.824a.659.659,0,0,1,.959.259Zm-9.841,17.038a.592.592,0,0,1-.857-.23l-.527-.913a.593.593,0,0,1,.23-.857l9.65-5.57a7.88,7.88,0,0,0-1-2.032c-.371-.538-.751-.7-1.588-.241a102.013,102.013,0,0,0-8.886,5.389.617.617,0,0,1-.9-.149l-.577-.8a.621.621,0,0,1,.168-.965,104.186,104.186,0,0,1,9.7-5.831c2.137-1.117,3.383-.766,4.356.67a13.062,13.062,0,0,1,1.893,4.182.674.674,0,0,1-.3.784Z" transform="translate(93.601 116.493)" fill="#fff"/>
      <path id="패스_83" data-name="패스 83" d="M99.39,154.162a.591.591,0,0,1-.38.8l-1.488.529a.59.59,0,0,1-.8-.378L89.6,135.128a.594.594,0,0,1,.38-.8l1.492-.531a.593.593,0,0,1,.8.38Zm11.086-4.427c-2.723.969-5.153-.245-7.3-5.369l-2.387.851,2.569,7.211a.593.593,0,0,1-.38.8l-1.444.513a.592.592,0,0,1-.8-.38l-6.848-19.225a.6.6,0,0,1,.38-.8l1.442-.513a.6.6,0,0,1,.8.38L100,142.993l2.341-.834c-2.03-6.072-.959-8.826,1.926-9.853,2.98-1.061,5.67.509,7.981,6.99s1.208,9.376-1.77,10.437m-5.335-15.048c-1.49.529-1.544,2.627.056,7.12s2.951,6.037,4.439,5.508,1.563-2.58-.039-7.073-2.968-6.085-4.456-5.555" transform="translate(83.289 122.762)" fill="#fff"/>
      <path id="패스_84" data-name="패스 84" d="M84.62,156.588a.594.594,0,0,1-.521.72l-1.559.249a.591.591,0,0,1-.718-.519l-3.36-20.929a.592.592,0,0,1,.519-.718l1.561-.251a.593.593,0,0,1,.718.521Zm9.314-5.433c.081.5.235.674.735.618A24.808,24.808,0,0,0,99.78,150.7a.573.573,0,0,1,.757.436l.332,1.116a.617.617,0,0,1-.459.787,34.616,34.616,0,0,1-6.506,1.247c-1.723.176-2.575-.527-2.808-2.14a22.831,22.831,0,0,1-.226-4.74l-3.146.5,1.231,7.679a.591.591,0,0,1-.519.718l-1.511.241a.591.591,0,0,1-.718-.519l-3.233-20.136a.593.593,0,0,1,.521-.718l1.511-.243a.592.592,0,0,1,.718.519l1.625,10.131,3.814-.612a22.582,22.582,0,0,1,4.406-9.6.55.55,0,0,1,.809-.18l1.417.915a.505.505,0,0,1,.135.843c-3.721,5.145-4.651,10.121-4,14.207" transform="translate(72.959 125.478)" fill="#fff"/>
      <path id="패스_85" data-name="패스 85" d="M66.921,146.42l2.127.147.722-10.389a.593.593,0,0,1,.67-.581l1.552.108a.594.594,0,0,1,.583.67l-1.413,20.35a.6.6,0,0,1-.67.583l-1.552-.108a.592.592,0,0,1-.583-.67l.529-7.608-2.129-.149-.548,7.909a.593.593,0,0,1-.67.583l-1.6-.11a.594.594,0,0,1-.583-.67l1.469-21.153a.593.593,0,0,1,.67-.583l1.6.112a.593.593,0,0,1,.583.668Zm9.4,10.538a.59.59,0,0,1-.477-.737,57.454,57.454,0,0,1,1.837-6.539A41.079,41.079,0,0,1,73.419,139.4c-.077-.334.012-.527.318-.606l1.77-.483a.509.509,0,0,1,.7.427,32.157,32.157,0,0,0,2.737,7.685,74.857,74.857,0,0,1,3.6-7.272.613.613,0,0,1,.868-.189l1.4.8a.609.609,0,0,1,.166.867A58.881,58.881,0,0,0,78.7,156.871a.614.614,0,0,1-.764.5Z" transform="translate(58.918 125.315)" fill="#fff"/>
      <path id="패스_86" data-name="패스 86" d="M73.05,139.644a.66.66,0,0,1-.855.508l-8.042-2.069-.855,3.329c.7.181,1.386.357,2.054.581,2.58.843,3.652,2.414,3.1,4.551a8.448,8.448,0,0,1-1.789,3.53c-.251.272-.452.454-.816.361l-10.374-2.667a5.234,5.234,0,0,0-.656,1.646c-.195.855.112,1.272.98,1.623a40.614,40.614,0,0,0,9.094,2.208c.376.044.654.27.61.648L65.374,155a.611.611,0,0,1-.674.606,43.98,43.98,0,0,1-9.98-2.385c-2.411-.905-3.325-2.382-2.82-4.35a10.943,10.943,0,0,1,1.544-3.488.709.709,0,0,1,.807-.311l10.422,2.677a2.718,2.718,0,0,0,.764-1.461,1.685,1.685,0,0,0-1.075-2.167,39.666,39.666,0,0,0-10.339-1.594.574.574,0,0,1-.61-.648l.031-1.029a.613.613,0,0,1,.674-.6,42.916,42.916,0,0,1,6.305.558l.886-3.451-8.139-2.092a.627.627,0,0,1-.432-.836l.237-.924a.629.629,0,0,1,.782-.523l19.024,4.889a.658.658,0,0,1,.506.855Z" transform="translate(48.143 123.649)" fill="#fff"/>
      <path id="패스_87" data-name="패스 87" d="M45.3,150.922c-4.395-2.036-6.446-4.95-5.169-7.7s4.813-3.051,9.206-1.015,6.433,4.914,5.157,7.67-4.8,3.082-9.195,1.05m6.622-11.256,7.716,3.574a.658.658,0,0,1,.344.932l-.38.818a.639.639,0,0,1-.923.32l-17.824-8.255a.629.629,0,0,1-.274-.9l.369-.8a.629.629,0,0,1,.865-.372l7.444,3.447,1.635-3.528a.59.59,0,0,1,.832-.3l1.525.706a.59.59,0,0,1,.307.83Zm-3.576,4.674c-2.891-1.337-4.916-1.143-5.506.133s.56,2.968,3.451,4.306,4.9,1.11,5.5-.164-.55-2.936-3.441-4.275m8.874-8.413c.264-.569.141-.959-.326-1.2a77.8,77.8,0,0,0-10.268-4.341c-.351-.135-.594-.386-.482-.749l.351-1.056a.609.609,0,0,1,.77-.471,72.048,72.048,0,0,1,11.528,4.9,2.617,2.617,0,0,1,1.338,3.8,26.95,26.95,0,0,1-2.086,3.79.663.663,0,0,1-.88.228l-1.529-.874a.522.522,0,0,1-.195-.838,25.907,25.907,0,0,0,1.779-3.183" transform="translate(36.973 119.115)" fill="#fff"/>
      <path id="패스_88" data-name="패스 88" d="M27.731,138.644a.6.6,0,0,1-.882.11l-1.322-1.038a.59.59,0,0,1-.108-.878l5.026-6.423-2.55-1.994a.661.661,0,0,1-.122-.988l.589-.751a.656.656,0,0,1,.986-.12l2.55,1.994,6.585-8.417a.59.59,0,0,1,.88-.108l1.324,1.034a.592.592,0,0,1,.108.88Zm7.147,1.006c-.28.355-.237.546.143.874A25.7,25.7,0,0,0,40,144.009a.562.562,0,0,1,.193.851l-.627,1.007a.543.543,0,0,1-.814.224,31.339,31.339,0,0,1-6.014-4.323c-1.428-1.309-1.55-2.3-.483-3.659,3.277-4.19,9.158-6.981,16.22-7.539.372-.027.652.064.714.432l.289,1.785c.048.388-.114.677-.521.708-6.253.459-11.5,2.853-14.083,6.153" transform="translate(23.501 111.49)" fill="#fff"/>
      <path id="패스_89" data-name="패스 89" d="M26.295,134.8a.616.616,0,0,1,.048.963l-.733.722a.628.628,0,0,1-.977-.041,69.975,69.975,0,0,1-6.811-7.477c-.892-1.154-1.152-2.165-.683-2.885a2.087,2.087,0,0,1,2.453-.9c.857.245,1.712.527,2.58.863a22.621,22.621,0,0,1-1.994-4.777.47.47,0,0,1,.413-.668l1.459-.322c.359-.085.484.207.589.55a25.075,25.075,0,0,0,2.945,6.714,67.876,67.876,0,0,1,5.985,3.412.642.642,0,0,1,.3.94l-.6,1.1a.588.588,0,0,1-.9.2,51.966,51.966,0,0,0-9.994-5.352c-.4-.151-.506.11-.255.394a74.618,74.618,0,0,0,6.172,6.566m.585-7.5-1.185-1.332a.541.541,0,0,1,.05-.814l1.575-1.4L21.585,117.3a.63.63,0,0,1,.108-.936l.658-.585a.631.631,0,0,1,.942,0l13.051,14.691a.657.657,0,0,1-.058.99l-.675.6a.64.64,0,0,1-.975-.075l-5.367-6.041-1.575,1.4a.54.54,0,0,1-.814-.048m1.183-8.907c-1.237-1.619-1.181-2.878.207-4.111a26.036,26.036,0,0,1,3.534-2.636.544.544,0,0,1,.735.185l1.052,1.451a.569.569,0,0,1-.212.892,21.148,21.148,0,0,0-2.939,2.208c-.376.369-.45.7-.135,1.094a65.083,65.083,0,0,0,7.658,8.168.581.581,0,0,1,.019.89l-.741.791a.607.607,0,0,1-.89.019,67.51,67.51,0,0,1-8.287-8.951" transform="translate(15.725 103.758)" fill="#fff"/>
      <path id="패스_90" data-name="패스 90" d="M10.084,115.153a.591.591,0,0,1-.861-.21l-.874-1.436a.6.6,0,0,1,.21-.863l18.117-11a.593.593,0,0,1,.861.212l.872,1.436a.592.592,0,0,1-.21.861Zm9.9-2.31c5.786-3.513,9.532-2.708,11.316.23s.772,6.633-5.018,10.148-9.511,2.694-11.3-.243-.791-6.62,5-10.134m1.561,2.573c-4.161,2.526-5.257,4.779-4.36,6.255s3.4,1.544,7.56-.98,5.3-4.8,4.4-6.282-3.445-1.517-7.6,1.007" transform="translate(7.668 94.434)" fill="#fff"/>
      <path id="패스_91" data-name="패스 91" d="M3.5,97.522a.59.59,0,0,1-.789-.4L2.2,95.52a.591.591,0,0,1,.4-.787l20.157-6.547a.6.6,0,0,1,.791.4l.517,1.6a.592.592,0,0,1-.4.789Zm1.843,3.65a.593.593,0,0,1,.4-.791l1.05-.34a.593.593,0,0,1,.791.4L10.045,108a52.167,52.167,0,0,0,5.778-1.612c.494-.189.67-.535.477-1.21a42.6,42.6,0,0,0-2.878-7.241.613.613,0,0,1,.332-.843l.915-.43a.628.628,0,0,1,.909.363c.7,1.436,1.249,2.708,1.747,3.916l4.748-1.54a47.911,47.911,0,0,0-2.4-5.207.48.48,0,0,1,.181-.743l1.058-.633a.484.484,0,0,1,.745.179,59.107,59.107,0,0,1,4,9.407l1.363,4.2a.656.656,0,0,1-.45.884l-.907.3a.658.658,0,0,1-.884-.45l-1.316-4.055c-.125-.38-.249-.764-.365-1.121l-4.771,1.548c.154.479.293.986.425,1.471.548,2.09.031,3.262-1.679,3.922a42.786,42.786,0,0,1-7.925,2.071.65.65,0,0,1-.7-.457Z" transform="translate(2.008 81.98)" fill="#fff"/>
      <path id="패스_92" data-name="패스 92" d="M2.314,92.036c-.409-3.109,1.517-5.794,6.94-6.911l-.461-3.507L.93,82.65a.593.593,0,0,1-.7-.54L.007,80.44a.591.591,0,0,1,.538-.7l21.027-2.76a.589.589,0,0,1,.7.538l.22,1.666a.594.594,0,0,1-.54.7L11.132,81.309l.455,3.46c6.29-.676,9.179,1.476,9.613,4.786.448,3.408-1.949,6.355-8.668,7.238S2.762,95.446,2.314,92.036m16.552-2.148c-.226-1.718-2.688-2.737-7.515-2.1S4.456,90.034,4.682,91.75s2.638,2.743,7.465,2.108,6.944-2.252,6.718-3.97" transform="translate(0 71.582)" fill="#fff"/>
      <path id="패스_93" data-name="패스 93" d="M2.7,81.211c0,.452-.212.72-.639.724l-1.079,0a.626.626,0,0,1-.67-.712,88.353,88.353,0,0,1,.4-11.36A1.982,1.982,0,0,1,2.18,67.9a2.2,2.2,0,0,1,2.25.737,38.254,38.254,0,0,1,2.25,3.349,38.671,38.671,0,0,1,3.132-6.1c.191-.317.517-.3.832-.06l1.307,1.067c.315.241.2.486-.039.8A35.86,35.86,0,0,0,8.2,74.821a69.6,69.6,0,0,1,3.235,7.967.539.539,0,0,1-.34.786l-1.359.564a.6.6,0,0,1-.886-.369C6.928,78.349,5.28,74.5,3.334,71.6c-.259-.365-.44-.272-.457.1-.243,2.951-.243,6.091-.181,9.511m10.962,4.472a.658.658,0,0,1-.668-.735l.946-19.622a.627.627,0,0,1,.731-.593l.951.044a.628.628,0,0,1,.672.66l-.4,8.37,6.066.293a.487.487,0,0,1,.5.552l-.091,1.88a.489.489,0,0,1-.55.5l-6.066-.3-.4,8.322a.661.661,0,0,1-.737.668Z" transform="translate(0.265 60.2)" fill="#fff"/>
      <path id="패스_94" data-name="패스 94" d="M2.334,64.61a.591.591,0,0,1,.8-.353A57.3,57.3,0,0,1,9.3,67.115a41.15,41.15,0,0,1,10.837-2.573c.34-.023.517.1.546.413l.193,1.824a.511.511,0,0,1-.531.623,32.065,32.065,0,0,0-8.029,1.475A74.859,74.859,0,0,1,19,73.61a.6.6,0,0,1,.05.888l-1.089,1.241a.612.612,0,0,1-.882.025,58.87,58.87,0,0,0-15.035-8.8.613.613,0,0,1-.372-.834Zm10.737-3.472-.731,3.129a.657.657,0,0,1-.843.525l-.93-.216a.659.659,0,0,1-.523-.845l.731-3.129L3.538,58.911a.594.594,0,0,1-.469-.755l.349-1.49a.592.592,0,0,1,.753-.469l19.873,4.646a.591.591,0,0,1,.467.753l-.347,1.492a.6.6,0,0,1-.755.469Zm-8.843-6.5a.594.594,0,0,1-.469-.755l.361-1.538a.592.592,0,0,1,.753-.469L25.527,56.7a.6.6,0,0,1,.469.755L25.635,59a.59.59,0,0,1-.753.467Z" transform="translate(1.499 48.225)" fill="#fff"/>
      <path id="패스_95" data-name="패스 95" d="M6.915,46.716c1.874-4.275,5.535-6.5,9.279-4.862A5.968,5.968,0,0,1,19.83,46.93l4.916,2.154L26.7,44.628a.629.629,0,0,1,.9-.291l.872.38a.628.628,0,0,1,.392.857L20.973,63.559a.655.655,0,0,1-.924.361l-.874-.382a.656.656,0,0,1-.361-.923l1.884-4.3-4.962-2.175a6.009,6.009,0,0,1-6.1.668c-3.742-1.64-4.593-5.823-2.721-10.094m9.785,4.29c1.229-2.8.88-5.255-1.716-6.4s-4.636.268-5.863,3.073-.87,5.234,1.725,6.369,4.624-.243,5.854-3.046m6.888.718-4-1.752a11.58,11.58,0,0,1-.685,2,12.554,12.554,0,0,1-1.069,1.94l4.018,1.764Z" transform="translate(5.539 38.422)" fill="#fff"/>
      <path id="패스_96" data-name="패스 96" d="M17.762,41.133a1.982,1.982,0,1,1,3.416,2.011,1.983,1.983,0,1,1-3.416-2.011" transform="translate(16.221 37.301)" fill="#fff"/>
      <path id="패스_97" data-name="패스 97" d="M27.53,51.642a4.769,4.769,0,0,1-5.408-4.217c-.046-.365-.079-.664-.095-.9a.7.7,0,0,0-.253-.523.736.736,0,0,0-.569-.129l-.892.11a4.722,4.722,0,0,1-3.6-.946A4.634,4.634,0,0,1,14.908,41.8a4.769,4.769,0,0,1,4.219-5.41,5.017,5.017,0,0,1,1.476.021,3.9,3.9,0,0,1,1.287.457.79.79,0,0,0,.523.106.66.66,0,0,0,.461-.261l5.863-7.519a.831.831,0,0,0,.168-.538.762.762,0,0,0-.207-.523,4.429,4.429,0,0,1-.747-1.146,4.806,4.806,0,0,1-.392-1.42,4.851,4.851,0,1,1,9.629-1.191c.046.363.077.662.1.9a.688.688,0,0,0,.247.521.7.7,0,0,0,.569.116c.228-.041.525-.081.892-.127a4.852,4.852,0,1,1,1.193,9.631,4.86,4.86,0,0,1-1.475-.031,4.527,4.527,0,0,1-1.293-.448.8.8,0,0,0-.542-.066.764.764,0,0,0-.467.284L30.58,42.635a.756.756,0,0,0-.174.5.847.847,0,0,0,.17.5,5.37,5.37,0,0,1,.76,1.162,4.488,4.488,0,0,1,.413,1.432,4.769,4.769,0,0,1-4.219,5.41m-.3-2.407a2.352,2.352,0,0,0,2.108-2.706,2.461,2.461,0,0,0-.187-.689,2.589,2.589,0,0,0-.384-.625,3.06,3.06,0,0,1-.8-1.99,3.128,3.128,0,0,1,.7-2.071l5.836-7.486a3.138,3.138,0,0,1,3.962-.9,2.636,2.636,0,0,0,.7.218,2.46,2.46,0,0,0,.714.014,2.426,2.426,0,1,0-.6-4.813,8.551,8.551,0,0,1-1.947.073,2.893,2.893,0,0,1-2.158-1.683,8.4,8.4,0,0,1-.4-1.907,2.347,2.347,0,0,0-.894-1.641,2.427,2.427,0,0,0-3.92,2.237,2.756,2.756,0,0,0,.178.716,2.071,2.071,0,0,0,.392.6,3.058,3.058,0,0,1,.8,1.992,3.133,3.133,0,0,1-.706,2.071L24.8,38.13a3.138,3.138,0,0,1-3.962.9,2.709,2.709,0,0,0-.7-.218,2.541,2.541,0,0,0-.716-.014A2.352,2.352,0,0,0,17.313,41.5a2.31,2.31,0,0,0,.9,1.625,2.391,2.391,0,0,0,1.806.454,7.8,7.8,0,0,1,1.949-.06,2.753,2.753,0,0,1,1.293.585,2.6,2.6,0,0,1,.87,1.129,8.642,8.642,0,0,1,.4,1.922,2.31,2.31,0,0,0,.9,1.625,2.383,2.383,0,0,0,1.808.454" transform="translate(13.824 18.705)" fill="#ced533"/>
    </g>
  </g>
</svg>
