<svg xmlns="http://www.w3.org/2000/svg" xmlns:xlink="http://www.w3.org/1999/xlink" width="166.181" height="166.176" viewBox="0 0 166.181 166.176">
  <defs>
    <clipPath id="clip-path">
      <rect id="사각형_58" data-name="사각형 58" width="160.667" height="160.671" fill="none"/>
    </clipPath>
  </defs>
  <g id="slogan01" transform="matrix(-0.035, -0.999, 0.999, -0.035, 5.681, 166.174)">
    <text id="동" transform="translate(115.806 17.96) rotate(35.246)" fill="#fff" font-size="12" font-family="KCCHanbit, KCC-Hanbit"><tspan x="0" y="0">동</tspan></text>
    <text id="물" transform="matrix(0.645, 0.764, -0.764, 0.645, 130.433, 28.998)" fill="#fff" font-size="12" font-family="KCCHanbit, KCC-Hanbit"><tspan x="0" y="0">물</tspan></text>
    <text id="보" transform="translate(141.804 43.369) rotate(64.535)" fill="#fff" font-size="12" font-family="KCCHanbit, KCC-Hanbit"><tspan x="0" y="0">보</tspan></text>
    <g id="그룹_13" data-name="그룹 13" transform="translate(0 -0.074)">
      <g id="그룹_12" data-name="그룹 12" clip-path="url(#clip-path)">
        <text id="호" transform="matrix(0.185, 0.983, -0.983, 0.185, 149.158, 60.233)" fill="#fff" font-size="12" font-family="KCCHanbit, KCC-Hanbit"><tspan x="0" y="0">호</tspan></text>
        <text id="센" transform="translate(151.983 78.346) rotate(93.898)" fill="#fff" font-size="12" font-family="KCCHanbit, KCC-Hanbit"><tspan x="0" y="0">센</tspan></text>
      </g>
    </g>
    <text id="터" transform="translate(150.168 96.504) rotate(108.629)" fill="#fff" font-size="12" font-family="KCCHanbit, KCC-Hanbit"><tspan x="0" y="0">터</tspan></text>
    <text id="_" data-name=" " transform="matrix(-0.489, 0.872, -0.872, -0.489, 146.137, 114.941)" fill="#fff" font-size="9" font-family="KCCHanbit, KCC-Hanbit"><tspan x="0" y="0"> </tspan></text>
    <text id="_2" data-name=" " transform="translate(141.775 122.174) rotate(125.794)" fill="#fff" font-size="9" font-family="KCCHanbit, KCC-Hanbit"><tspan x="0" y="0"> </tspan></text>
    <text id="_3" data-name=" " transform="translate(136.621 128.869) rotate(132.278)" fill="#fff" font-size="9" font-family="KCCHanbit, KCC-Hanbit"><tspan x="0" y="0"> </tspan></text>
    <text id="A" transform="matrix(-0.782, 0.624, -0.624, -0.782, 128.846, 132.83)" fill="#fff" font-size="12" font-family="KCCHanbit, KCC-Hanbit"><tspan x="0" y="0">A</tspan></text>
    <text id="n" transform="matrix(-0.89, 0.457, -0.457, -0.89, 116.986, 141.659)" fill="#fff" font-size="12" font-family="KCCHanbit, KCC-Hanbit"><tspan x="0" y="0">n</tspan></text>
    <text id="i" transform="translate(105.601 150.228) rotate(161.647)" fill="#fff" font-size="9" font-family="KCCHanbit, KCC-Hanbit"><tspan x="0" y="0">i</tspan></text>
    <g id="그룹_15" data-name="그룹 15" transform="translate(0 -0.074)">
      <g id="그룹_14" data-name="그룹 14" clip-path="url(#clip-path)">
        <text id="m" transform="translate(96.77 150.091) rotate(172.09)" fill="#fff" font-size="12" font-family="KCCHanbit, KCC-Hanbit"><tspan x="0" y="0">m</tspan></text>
        <text id="a-2" data-name="a" transform="translate(79.256 151.803) rotate(-175.717)" fill="#fff" font-size="12" font-family="KCCHanbit, KCC-Hanbit"><tspan x="0" y="0">a</tspan></text>
        <text id="l" transform="translate(66.3 150.332) rotate(-167.001)" fill="#fff" font-size="12" font-family="KCCHanbit, KCC-Hanbit"><tspan x="0" y="0">l</tspan></text>
      </g>
    </g>
    <text id="_4" data-name=" " transform="matrix(-0.941, -0.338, 0.338, -0.941, 56.964, 150.883)" fill="#fff" font-size="9" font-family="KCCHanbit, KCC-Hanbit"><tspan x="0" y="0"> </tspan></text>
    <text id="P" transform="matrix(-0.876, -0.482, 0.482, -0.876, 50.334, 145.202)" fill="#fff" font-size="12" font-family="KCCHanbit, KCC-Hanbit"><tspan x="0" y="0">P</tspan></text>
    <text id="r" transform="translate(38.074 137.822) rotate(-141.372)" fill="#fff" font-size="12" font-family="KCCHanbit, KCC-Hanbit"><tspan x="0" y="0">r</tspan></text>
    <text id="o" transform="matrix(-0.669, -0.744, 0.744, -0.669, 30.393, 131.427)" fill="#fff" font-size="12" font-family="KCCHanbit, KCC-Hanbit"><tspan x="0" y="0">o</tspan></text>
    <text id="t" transform="matrix(-0.531, -0.848, 0.848, -0.531, 21.578, 120.878)" fill="#fff" font-size="12" font-family="KCCHanbit, KCC-Hanbit"><tspan x="0" y="0">t</tspan></text>
    <text id="e" transform="translate(15.99 111.408) rotate(-112.477)" fill="#fff" font-size="12" font-family="KCCHanbit, KCC-Hanbit"><tspan x="0" y="0">e</tspan></text>
    <g id="그룹_17" data-name="그룹 17" transform="translate(0 -0.074)">
      <g id="그룹_16" data-name="그룹 16" clip-path="url(#clip-path)">
        <text id="c" transform="translate(11.457 99.489) rotate(-102.069)" fill="#fff" font-size="12" font-family="KCCHanbit, KCC-Hanbit"><tspan x="0" y="0">c</tspan></text>
        <text id="t-2" data-name="t" transform="translate(9.201 86.792) rotate(-92.494)" fill="#fff" font-size="12" font-family="KCCHanbit, KCC-Hanbit"><tspan x="0" y="0">t</tspan></text>
        <text id="i-2" data-name="i" transform="translate(6.115 75.555) rotate(-84.88)" fill="#fff" font-size="9" font-family="KCCHanbit, KCC-Hanbit"><tspan x="0" y="0">i</tspan></text>
        <text id="o-2" data-name="o" transform="translate(9.966 67.6) rotate(-76.029)" fill="#fff" font-size="12" font-family="KCCHanbit, KCC-Hanbit"><tspan x="0" y="0">o</tspan></text>
      </g>
    </g>
    <text id="n-2" data-name="n" transform="translate(13.712 54.267) rotate(-64.95)" fill="#fff" font-size="12" font-family="KCCHanbit, KCC-Hanbit"><tspan x="0" y="0">n</tspan></text>
    <text id="_5" data-name=" " transform="matrix(0.556, -0.831, 0.831, 0.556, 17.459, 40.527)" fill="#fff" font-size="9" font-family="KCCHanbit, KCC-Hanbit"><tspan x="0" y="0"> </tspan></text>
    <text id="C-2" data-name="C" transform="matrix(0.684, -0.729, 0.729, 0.684, 24.55, 35.446)" fill="#fff" font-size="12" font-family="KCCHanbit, KCC-Hanbit"><tspan x="0" y="0">C</tspan></text>
    <text id="e-2" data-name="e" transform="matrix(0.812, -0.583, 0.583, 0.812, 35.33, 24.739)" fill="#fff" font-size="12" font-family="KCCHanbit, KCC-Hanbit"><tspan x="0" y="0">e</tspan></text>
    <text id="n-3" data-name="n" transform="translate(45.955 17.56) rotate(-25.072)" fill="#fff" font-size="12" font-family="KCCHanbit, KCC-Hanbit"><tspan x="0" y="0">n</tspan></text>
    <text id="t-3" data-name="t" transform="translate(58.489 12.243) rotate(-15.12)" fill="#fff" font-size="12" font-family="KCCHanbit, KCC-Hanbit"><tspan x="0" y="0">t</tspan></text>
    <g id="그룹_19" data-name="그룹 19" transform="translate(0 -0.074)">
      <g id="그룹_18" data-name="그룹 18" clip-path="url(#clip-path)">
        <text id="e-3" data-name="e" transform="matrix(0.995, -0.097, 0.097, 0.995, 69.178, 9.733)" fill="#fff" font-size="12" font-family="KCCHanbit, KCC-Hanbit"><tspan x="0" y="0">e</tspan></text>
        <text id="r-2" data-name="r" transform="matrix(0.998, 0.062, -0.062, 0.998, 81.943, 8.951)" fill="#fff" font-size="12" font-family="KCCHanbit, KCC-Hanbit"><tspan x="0" y="0">r</tspan></text>
        <path id="패스_62" data-name="패스 62" d="M403.2,359.252a2.644,2.644,0,0,1-3.18-2.089q-.062-.3-.093-.491a.387.387,0,0,0-.162-.277.41.41,0,0,0-.321-.046l-.489.1a2.619,2.619,0,0,1-2.031-.361,2.574,2.574,0,0,1-1.145-1.711,2.646,2.646,0,0,1,2.089-3.18,2.79,2.79,0,0,1,.818-.054,2.182,2.182,0,0,1,.732.194.442.442,0,0,0,.294.036.369.369,0,0,0,.243-.165l2.9-4.419a.453.453,0,0,0,.069-.3.423.423,0,0,0-.137-.28,2.508,2.508,0,0,1-.466-.6,2.659,2.659,0,0,1-.279-.767,2.69,2.69,0,1,1,5.269-1.091q.062.3.093.491a.359.359,0,0,0,.48.315q.188-.048.487-.11a2.69,2.69,0,1,1,1.091,5.269,2.656,2.656,0,0,1-.815.049,2.514,2.514,0,0,1-.736-.189.448.448,0,0,0-.3-.012.422.422,0,0,0-.245.178l-2.89,4.4a.434.434,0,0,0-.073.284.467.467,0,0,0,.118.271,2.986,2.986,0,0,1,.472.608,2.492,2.492,0,0,1,.293.773,2.644,2.644,0,0,1-2.089,3.18m-.273-1.317a1.3,1.3,0,0,0,1.045-1.59,1.384,1.384,0,0,0-.135-.373,1.481,1.481,0,0,0-.24-.328,1.7,1.7,0,0,1-.532-1.065,1.741,1.741,0,0,1,.3-1.176l2.89-4.4a1.721,1.721,0,0,1,.963-.735,1.738,1.738,0,0,1,1.187.061,1.477,1.477,0,0,0,.4.09,1.381,1.381,0,0,0,.4-.024,1.345,1.345,0,1,0-.545-2.635,4.689,4.689,0,0,1-1.073.129,1.605,1.605,0,0,1-1.269-.833,4.71,4.71,0,0,1-.308-1.036,1.345,1.345,0,1,0-2.635.545,1.534,1.534,0,0,0,.13.388,1.171,1.171,0,0,0,.244.313,1.694,1.694,0,0,1,.532,1.065,1.743,1.743,0,0,1-.3,1.176l-2.89,4.4a1.718,1.718,0,0,1-.962.735,1.738,1.738,0,0,1-1.187-.061,1.474,1.474,0,0,0-.4-.09,1.381,1.381,0,0,0-.4.024,1.3,1.3,0,0,0-1.044,1.59,1.278,1.278,0,0,0,.567.858,1.321,1.321,0,0,0,1.019.169,4.332,4.332,0,0,1,1.075-.12,1.526,1.526,0,0,1,.741.266,1.451,1.451,0,0,1,.531.585,4.832,4.832,0,0,1,.309,1.044,1.279,1.279,0,0,0,.567.858,1.323,1.323,0,0,0,1.019.169" transform="translate(-263.325 -227.312)" fill="#cdf74b"/>
        <path id="패스_63" data-name="패스 63" d="M296.655,22.443a2.645,2.645,0,0,1-1.422,3.529q-.281.119-.463.187a.387.387,0,0,0-.24.213.413.413,0,0,0,.018.324l.2.459a2.618,2.618,0,0,1,.046,2.063,2.575,2.575,0,0,1-1.452,1.46,2.645,2.645,0,0,1-3.529-1.422,2.8,2.8,0,0,1-.214-.792,2.185,2.185,0,0,1,.047-.756.441.441,0,0,0-.022-.3.371.371,0,0,0-.209-.206l-4.9-1.976a.452.452,0,0,0-.312-.007.421.421,0,0,0-.247.189,2.507,2.507,0,0,1-.5.575,2.654,2.654,0,0,1-.7.424,2.69,2.69,0,1,1-2.107-4.95q.281-.12.463-.188a.36.36,0,0,0,.215-.533q-.084-.175-.2-.456a2.69,2.69,0,1,1,4.951-2.107,2.652,2.652,0,0,1,.208.79,2.514,2.514,0,0,1-.041.758.451.451,0,0,0,.047.3.425.425,0,0,0,.223.205l4.882,1.967a.432.432,0,0,0,.292.016.468.468,0,0,0,.242-.169,2.991,2.991,0,0,1,.5-.582,2.5,2.5,0,0,1,.7-.44,2.645,2.645,0,0,1,3.529,1.422m-1.238.527a1.3,1.3,0,0,0-1.764-.711,1.379,1.379,0,0,0-.339.205,1.473,1.473,0,0,0-.275.3,1.694,1.694,0,0,1-.939.731,1.74,1.74,0,0,1-1.212-.06l-4.882-1.967a1.74,1.74,0,0,1-1.084-1.975,1.485,1.485,0,0,0,.01-.406,1.388,1.388,0,0,0-.1-.383,1.345,1.345,0,1,0-2.475,1.054,4.714,4.714,0,0,1,.338,1.027,1.6,1.6,0,0,1-.567,1.408,4.7,4.7,0,0,1-.955.506,1.345,1.345,0,1,0,1.054,2.475,1.527,1.527,0,0,0,.354-.2,1.155,1.155,0,0,0,.259-.3,1.7,1.7,0,0,1,.939-.731,1.742,1.742,0,0,1,1.212.06l4.882,1.967a1.721,1.721,0,0,1,.911.8,1.738,1.738,0,0,1,.174,1.176,1.5,1.5,0,0,0-.01.406,1.374,1.374,0,0,0,.1.383,1.3,1.3,0,0,0,1.764.711,1.279,1.279,0,0,0,.73-.725,1.324,1.324,0,0,0-.035-1.033,4.339,4.339,0,0,1-.33-1.03,1.529,1.529,0,0,1,.115-.779,1.452,1.452,0,0,1,.469-.636,4.841,4.841,0,0,1,.963-.509,1.279,1.279,0,0,0,.73-.725,1.323,1.323,0,0,0-.035-1.033" transform="translate(-185.651 -10.995)" fill="#cdf74b"/>
      </g>
    </g>
  </g>
</svg>
