<svg xmlns="http://www.w3.org/2000/svg" width="32" height="32" viewBox="0 0 32 32">
  <g id="sns2" transform="translate(-6008 4393.154)">
    <path id="패스_109" data-name="패스 109" d="M17.725,111.7a7.34,7.34,0,0,1-1.8.513c.289-.049.715-.573.885-.785a3.3,3.3,0,0,0,.6-1.089c.016-.031.028-.07,0-.093a.1.1,0,0,0-.1.008,9.189,9.189,0,0,1-2.135.817.142.142,0,0,1-.147-.039,1.789,1.789,0,0,0-.187-.191,3.764,3.764,0,0,0-1.034-.633,3.6,3.6,0,0,0-1.586-.255,3.791,3.791,0,0,0-1.5.425,3.872,3.872,0,0,0-1.213.991,3.721,3.721,0,0,0-.725,1.452,3.938,3.938,0,0,0-.038,1.532c.012.086,0,.1-.074.086A11.4,11.4,0,0,1,1.333,110.7c-.086-.1-.132-.1-.2.007a3.718,3.718,0,0,0,.634,4.394c.144.136.292.272.451.4a3.732,3.732,0,0,1-1.415-.4c-.086-.054-.129-.023-.137.074a2.267,2.267,0,0,0,.023.42,3.76,3.76,0,0,0,2.318,3,2.173,2.173,0,0,0,.47.144,4.187,4.187,0,0,1-1.388.043c-.1-.02-.14.031-.1.128A3.9,3.9,0,0,0,4.9,121.354c.132.023.264.023.4.054-.008.012-.016.012-.023.023a4.617,4.617,0,0,1-1.991,1.055,7.13,7.13,0,0,1-3.024.387c-.163-.024-.2-.022-.241,0s-.006.067.047.109c.206.136.416.257.63.373a9.984,9.984,0,0,0,2.021.809,10.767,10.767,0,0,0,10.454-2.445,10.97,10.97,0,0,0,2.894-8c0-.115.136-.178.216-.239A7.081,7.081,0,0,0,17.7,112a.449.449,0,0,0,.094-.283V111.7c0-.047,0-.033-.073,0" transform="translate(6015.158 -4494.251)" fill="#fff"/>
    <g id="타원_41" data-name="타원 41" transform="translate(6008 -4393.154)" fill="none" stroke="#fff" stroke-width="1">
      <circle cx="16" cy="16" r="16" stroke="none"/>
      <circle cx="16" cy="16" r="15.5" fill="none"/>
    </g>
  </g>
</svg>
